<?xml version="1.0" encoding="UTF-8"?>
<svg version="1.1" xmlns="http://www.w3.org/2000/svg" width="690" height="362">
<path d="M0 0 C1.03552254 0.34866623 1.03552254 0.34866623 2.09196472 0.70437622 C4.35022252 1.46644894 6.60474003 2.23900069 8.859375 3.01171875 C10.44643675 3.54967482 12.0337626 4.08685235 13.62133789 4.62329102 C16.09391065 5.45910659 18.56619923 6.2957028 21.03749084 7.13529968 C26.85881694 9.11278153 32.68963776 11.05972938 38.52734375 12.98828125 C40.1396501 13.52172349 41.75195481 14.05517069 43.36425781 14.58862305 C45.67468426 15.35285432 47.985309 16.11644533 50.29675293 16.87759399 C80.4652002 26.82032682 80.4652002 26.82032682 85.421875 34.51171875 C88.49155978 42.75139895 87.77277238 51.83740007 87.77734375 60.50390625 C87.78056642 61.95150789 87.78393121 63.39910921 87.78742981 64.84671021 C87.7933974 67.87763216 87.79527245 70.90852572 87.79467773 73.93945312 C87.79459686 77.01145363 87.80147836 80.08330379 87.81518555 83.15527344 C87.99715649 124.58763836 87.99715649 124.58763836 83.484375 139.82421875 C83.27192139 140.55737305 83.05946777 141.29052734 82.84057617 142.04589844 C76.51860031 162.66826796 63.16983332 181.06657626 46.609375 194.69921875 C45.83722656 195.34761719 45.06507813 195.99601563 44.26953125 196.6640625 C38.34425067 201.5409522 32.15603012 205.70689438 25.609375 209.69921875 C24.82046875 210.20195312 24.0315625 210.7046875 23.21875 211.22265625 C17.10000909 215.0519345 10.7249192 218.12323658 4.15625 221.0859375 C2.08554169 222.02779051 0.02611965 222.99695838 -2 224.03125 C-7.53618657 226.80915922 -12.22820669 227.65353314 -18.390625 226.69921875 C-22.73110309 225.13705149 -26.8269824 223.19163371 -30.9309082 221.10229492 C-32.81235162 220.14474651 -34.70572918 219.21567917 -36.60351562 218.29101562 C-52.36687778 210.52465426 -66.62083507 200.77928237 -79.390625 188.69921875 C-80.2878125 187.87808594 -81.185 187.05695313 -82.109375 186.2109375 C-102.85811171 166.54043571 -113.4991258 139.92843262 -114.59378052 111.57173157 C-114.70723522 107.18096567 -114.72235945 102.79045557 -114.7265625 98.3984375 C-114.73301276 96.78473297 -114.73974264 95.17102954 -114.74673462 93.55732727 C-114.75859503 90.20510138 -114.76242645 86.85297775 -114.76123047 83.50073242 C-114.76102619 79.22973573 -114.78849052 74.9593962 -114.82277489 70.68855572 C-114.84510882 67.36746763 -114.84906628 64.04653731 -114.84801102 60.72538185 C-114.85035094 59.15107744 -114.85908238 57.5767676 -114.87467575 56.00253868 C-114.96453036 46.0097149 -114.82410185 36.81476896 -107.953125 28.88671875 C-98.86190417 22.39479898 -85.65016176 19.68602183 -75.078125 16.19921875 C-74.3200354 15.94886871 -73.5619458 15.69851868 -72.78088379 15.44058228 C-69.55255548 14.37469825 -66.32410727 13.30919413 -63.09463501 12.2467804 C-57.78343681 10.49750234 -52.48231402 8.72049654 -47.18635559 6.92562866 C-43.55662345 5.6982966 -39.92239517 4.48466648 -36.28726196 3.2734375 C-34.53450767 2.68620165 -32.78362889 2.09333541 -31.03475952 1.49462891 C-28.58012002 0.6554782 -26.1193561 -0.16265702 -23.65625 -0.9765625 C-22.93683731 -1.22799515 -22.21742462 -1.4794278 -21.47621155 -1.73847961 C-13.71201934 -4.25413379 -7.61472962 -2.59196351 0 0 Z M-27.390625 60.69921875 C-27.55034477 63.07260514 -27.6498683 65.42040147 -27.70703125 67.796875 C-27.72781235 68.50573349 -27.74859344 69.21459198 -27.77000427 69.94493103 C-27.83557098 72.2170918 -27.8944173 74.48937139 -27.953125 76.76171875 C-27.99630349 78.29884058 -28.03991755 79.83595025 -28.08398438 81.37304688 C-28.19125949 85.14831465 -28.29250637 88.92370235 -28.390625 92.69921875 C-29.35476318 92.7242749 -30.31890137 92.74933105 -31.31225586 92.77514648 C-34.87750342 92.86907181 -38.44254933 92.96932814 -42.00756836 93.0715332 C-43.55276789 93.1149386 -45.09801714 93.15660946 -46.64331055 93.1965332 C-48.86001596 93.25410074 -51.0764698 93.31783299 -53.29296875 93.3828125 C-54.33516823 93.40788124 -54.33516823 93.40788124 -55.39842224 93.43345642 C-58.67824529 93.26424731 -58.67824529 93.26424731 -61.390625 94.69921875 C-61.49056032 96.75977185 -61.52143406 98.82374465 -61.5234375 100.88671875 C-61.52472656 102.14226562 -61.52601563 103.3978125 -61.52734375 104.69140625 C-61.52524902 105.34850586 -61.5231543 106.00560547 -61.52099609 106.68261719 C-61.51564734 108.6908321 -61.52094191 110.69882334 -61.52734375 112.70703125 C-61.52605469 113.96257812 -61.52476562 115.218125 -61.5234375 116.51171875 C-61.52230957 117.67316406 -61.52118164 118.83460938 -61.52001953 120.03125 C-61.69399974 122.61985159 -61.69399974 122.61985159 -60.390625 123.69921875 C-58.17374506 123.8579583 -55.95207202 123.95055712 -53.73046875 124.015625 C-52.73376915 124.04679665 -52.73376915 124.04679665 -51.7169342 124.07859802 C-49.58743957 124.14415533 -47.45781832 124.2030066 -45.328125 124.26171875 C-43.88735653 124.30489814 -42.44660101 124.34851224 -41.00585938 124.39257812 C-37.4675846 124.49984268 -33.92916631 124.60109246 -30.390625 124.69921875 C-28.1921886 128.26299986 -28.08552031 131.29319681 -27.9765625 135.43359375 C-27.93789063 136.72910156 -27.89921875 138.02460938 -27.859375 139.359375 C-27.82792233 140.72265159 -27.79667493 142.08593293 -27.765625 143.44921875 C-27.72742031 144.82814903 -27.68836713 146.20705609 -27.6484375 147.5859375 C-27.55414742 150.95680797 -27.4712966 154.32799487 -27.390625 157.69921875 C-18.150625 157.69921875 -8.910625 157.69921875 0.609375 157.69921875 C0.89818192 148.66469815 0.89818192 148.66469815 1.17749023 139.62988281 C1.21559814 138.50291992 1.25370605 137.37595703 1.29296875 136.21484375 C1.32962646 135.06274414 1.36628418 133.91064453 1.40405273 132.72363281 C1.57497675 130.20590784 1.74485955 128.06364584 2.609375 125.69921875 C5.50861866 124.24959692 8.13237855 124.47795394 11.3671875 124.3828125 C12.03023895 124.3620314 12.69329041 124.34125031 13.37643433 124.31983948 C15.49564194 124.25442644 17.614974 124.1954977 19.734375 124.13671875 C21.17058581 124.09352566 22.60678402 124.04991111 24.04296875 124.00585938 C27.56497094 123.89875376 31.08711325 123.797463 34.609375 123.69921875 C34.63403246 119.58749315 34.65221459 115.47579597 34.66430664 111.36401367 C34.6693458 109.96426647 34.67617716 108.56452455 34.68481445 107.16479492 C34.6968982 105.15676098 34.70207307 103.14868918 34.70703125 101.140625 C34.71488647 99.32606812 34.71488647 99.32606812 34.72290039 97.47485352 C34.92712785 94.79109858 34.92712785 94.79109858 33.609375 93.69921875 C31.23598861 93.53949898 28.88819228 93.43997545 26.51171875 93.3828125 C25.44843102 93.35164085 25.44843102 93.35164085 24.36366272 93.31983948 C22.09150195 93.25427277 19.81922236 93.19542645 17.546875 93.13671875 C16.00975317 93.09354026 14.4726435 93.0499262 12.93554688 93.00585938 C9.1602791 92.89858426 5.3848914 92.79733738 1.609375 92.69921875 C1.58431885 91.73508057 1.5592627 90.77094238 1.53344727 89.77758789 C1.43952194 86.21234033 1.33926561 82.64729442 1.23706055 79.08227539 C1.19365515 77.53707586 1.15198429 75.99182661 1.11206055 74.4465332 C1.05449301 72.22982779 0.99076076 70.01337395 0.92578125 67.796875 C0.90906876 67.10207535 0.89235626 66.4072757 0.87513733 65.69142151 C1.04434644 62.41159846 1.04434644 62.41159846 -0.390625 59.69921875 C-2.30520782 59.59950089 -4.22344817 59.56841286 -6.140625 59.56640625 C-7.88859375 59.56447266 -7.88859375 59.56447266 -9.671875 59.5625 C-11.51265625 59.56830078 -11.51265625 59.56830078 -13.390625 59.57421875 C-14.6178125 59.57035156 -15.845 59.56648438 -17.109375 59.5625 C-18.2746875 59.56378906 -19.44 59.56507812 -20.640625 59.56640625 C-21.71828125 59.56753418 -22.7959375 59.56866211 -23.90625 59.56982422 C-26.33282497 59.41829504 -26.33282497 59.41829504 -27.390625 60.69921875 Z " fill="#B840BD" transform="translate(358.390625,68.30078125)"/>
<path d="M0 0 C10.03746128 2.23864919 19.62244195 5.4867516 29.3125 8.875 C31.56495949 9.65751265 33.81792509 10.43854945 36.07107544 11.21907043 C37.55027995 11.73196242 39.02902519 12.24618099 40.5072937 12.76176453 C44.08747851 14.00745808 47.67278952 15.22778757 51.27978516 16.39379883 C51.95921677 16.61452057 52.63864838 16.83524231 53.33866882 17.06265259 C55.18298193 17.65862825 57.02976205 18.24695421 58.87670898 18.8347168 C64.5858682 20.96477362 68.54310489 23.83815564 71.9375 28.875 C74.7639245 37.18801324 74.16339412 46.13199116 74.16796875 54.8046875 C74.17119142 56.25228914 74.17455621 57.69989046 74.17805481 59.14749146 C74.1840224 62.17841341 74.18589745 65.20930697 74.18530273 68.24023438 C74.18522186 71.31223488 74.19210336 74.38408504 74.20581055 77.45605469 C74.38778149 118.88841961 74.38778149 118.88841961 69.875 134.125 C69.66254639 134.8581543 69.45009277 135.59130859 69.23120117 136.34667969 C62.90922531 156.96904921 49.56045832 175.36735751 33 189 C32.22785156 189.64839844 31.45570313 190.29679688 30.66015625 190.96484375 C24.73487567 195.84173345 18.54665512 200.00767563 12 204 C11.21109375 204.50273437 10.4221875 205.00546875 9.609375 205.5234375 C3.49063409 209.35271575 -2.8844558 212.42401783 -9.453125 215.38671875 C-11.52383331 216.32857176 -13.58325535 217.29773963 -15.609375 218.33203125 C-21.13149314 221.10288131 -25.85188747 221.8624575 -32 221 C-36.23212896 219.51936468 -40.14785736 217.55941101 -44.125 215.5 C-45.176875 214.97535156 -46.22875 214.45070313 -47.3125 213.91015625 C-49.88444829 212.6241821 -52.44583059 211.32083579 -55 210 C-53.02 209.01 -53.02 209.01 -51 208 C-51 208.66 -51 209.32 -51 210 C-49.576875 209.9690625 -49.576875 209.9690625 -48.125 209.9375 C-45 210 -45 210 -43 211 C-43 211.66 -43 212.32 -43 213 C-38.3766216 214.66206522 -38.3766216 214.66206522 -33.5859375 214.50390625 C-30.66327604 213.93438461 -28.70574101 214.23594828 -25.8125 214.875 C-24.52279297 215.14957031 -24.52279297 215.14957031 -23.20703125 215.4296875 C-21 216 -21 216 -19 217 C-18.67 216.01 -18.34 215.02 -18 214 C-14.4375 212.8125 -14.4375 212.8125 -11 212 C-10.67 210.68 -10.34 209.36 -10 208 C-8.35 208.33 -6.7 208.66 -5 209 C-4.67 208.01 -4.34 207.02 -4 206 C-3.113125 206.144375 -2.22625 206.28875 -1.3125 206.4375 C1.97105127 206.35235301 1.97105127 206.35235301 3.51171875 204.44140625 C4.75852476 202.66586875 5.91657766 200.87921043 7 199 C7.66 199.33 8.32 199.66 9 200 C10.175625 199.01 10.175625 199.01 11.375 198 C14 196 14 196 16 196 C16.33 195.01 16.66 194.02 17 193 C22.11627907 188.90697674 22.11627907 188.90697674 25.375 189.25 C25.91125 189.4975 26.4475 189.745 27 190 C27.99 188.68 28.98 187.36 30 186 C29.34 185.01 28.68 184.02 28 183 C29.11375 182.566875 30.2275 182.13375 31.375 181.6875 C35.17512334 180.30088881 35.17512334 180.30088881 37 177 C37 176.34 37 175.68 37 175 C38.98 174.67 40.96 174.34 43 174 C43.33 171.69 43.66 169.38 44 167 C46.64 166.01 49.28 165.02 52 164 C52.12375 162.88625 52.2475 161.7725 52.375 160.625 C53 157 53 157 55 155 C55 154.01 55 153.02 55 152 C55.33 151.34 55.66 150.68 56 150 C58.0625 149.375 58.0625 149.375 60 149 C60.09796875 148.01257813 60.1959375 147.02515625 60.296875 146.0078125 C60.44640625 144.72648438 60.5959375 143.44515625 60.75 142.125 C60.95882812 140.21074219 60.95882812 140.21074219 61.171875 138.2578125 C62 135 62 135 64.078125 133.5546875 C64.71234375 133.37164062 65.3465625 133.18859375 66 133 C66 132.01 66 131.02 66 130 C66.66 130 67.32 130 68 130 C68 126.37 68 122.74 68 119 C68.66 118.67 69.32 118.34 70 118 C70.02712153 116.083412 70.04645097 114.1667127 70.0625 112.25 C70.07410156 111.18265625 70.08570313 110.1153125 70.09765625 109.015625 C70.01510087 106.46631499 69.74617558 104.42066409 69 102 C69.99 102 70.98 102 72 102 C71.7834375 100.6078125 71.7834375 100.6078125 71.5625 99.1875 C71.36987772 97.79236431 71.18289708 96.39644391 71 95 C70.90460938 94.28199219 70.80921875 93.56398438 70.7109375 92.82421875 C69.96897183 86.17832625 69.89352666 79.55470426 69.875 72.875 C69.87040771 71.92544434 69.86581543 70.97588867 69.86108398 69.99755859 C69.86410522 68.6645874 69.86410522 68.6645874 69.8671875 67.3046875 C69.86831543 66.50015137 69.86944336 65.69561523 69.87060547 64.86669922 C70 63 70 63 71 62 C71.09314316 58.01951196 70.85349765 54.03962182 70.6875 50.0625 C70.65205078 48.93908203 70.61660156 47.81566406 70.58007812 46.65820312 C70.53689453 45.58634766 70.49371094 44.51449219 70.44921875 43.41015625 C70.41143311 42.42152588 70.37364746 41.43289551 70.3347168 40.41430664 C70.22251435 37.82031175 70.22251435 37.82031175 68 36 C68.66 36 69.32 36 70 36 C70 34.68 70 33.36 70 32 C68.35 31.34 66.7 30.68 65 30 C65 29.34 65 28.68 65 28 C64.67 28.66 64.34 29.32 64 30 C62.68 29.67 61.36 29.34 60 29 C60 26.69 60 24.38 60 22 C58.39679026 21.80448662 56.79237014 21.61888017 55.1875 21.4375 C54.29417969 21.33308594 53.40085937 21.22867188 52.48046875 21.12109375 C49.86624428 20.84341291 49.86624428 20.84341291 47 22 C44.8125 21.0625 44.8125 21.0625 43 20 C42.01 20.66 41.02 21.32 40 22 C39.505 20.515 39.505 20.515 39 19 C38.67 19.66 38.34 20.32 38 21 C37.34 21 36.68 21 36 21 C36 18.69 36 16.38 36 14 C31.71 14 27.42 14 23 14 C23 13.34 23 12.68 23 12 C22.01 11.67 21.02 11.34 20 11 C20 10.34 20 9.68 20 9 C19.319375 9.0825 18.63875 9.165 17.9375 9.25 C14.64840132 8.97007671 12.74954345 7.80752585 9.98046875 6.08984375 C6.52338718 4.18742608 2.76740231 3.12765783 -1 2 C-0.67 1.34 -0.34 0.68 0 0 Z " fill="#D15FA3" transform="translate(372,74)"/>
<path d="M0 0 C-3.96 1.98 -3.96 1.98 -8 4 C-7.01 4.495 -7.01 4.495 -6 5 C-6 5.66 -6 6.32 -6 7 C-6.66 7 -7.32 7 -8 7 C-8.33 7.66 -8.66 8.32 -9 9 C-11.32156597 9.40729228 -13.6568787 9.74438677 -16 10 C-16 9.34 -16 8.68 -16 8 C-16.886875 8.495 -17.77375 8.99 -18.6875 9.5 C-21.87586238 10.94378674 -23.58187546 11.30159922 -27 11 C-27.2475 11.61875 -27.495 12.2375 -27.75 12.875 C-29.27221172 15.46275992 -30.16777975 16.05592658 -33 17 C-36.9699753 17.33083127 -39.58794404 17.09972674 -43 15 C-43 15.66 -43 16.32 -43 17 C-43.59167969 17.15855469 -44.18335938 17.31710938 -44.79296875 17.48046875 C-50.19458849 19.03778412 -50.19458849 19.03778412 -54.375 22.6875 C-57.99433747 25.87596396 -60.53316524 25.27670784 -65.1953125 25.04296875 C-69.0975949 24.98318448 -72.27994462 25.87696441 -76 27 C-76.2475 28.093125 -76.495 29.18625 -76.75 30.3125 C-78.01988535 34.05866178 -78.59208186 35.18954349 -82 37 C-82.66 37 -83.32 37 -84 37 C-84.9979495 41.94800254 -85.11621442 46.62656833 -85.0625 51.64453125 C-85.05871338 52.45492355 -85.05492676 53.26531586 -85.05102539 54.1002655 C-85.03887243 56.67106609 -85.02022506 59.24175103 -85 61.8125 C-84.97350546 65.21484036 -84.9534924 68.61712723 -84.9375 72.01953125 C-84.92920166 72.80487747 -84.92090332 73.59022369 -84.91235352 74.39936829 C-84.90380343 76.26645454 -84.94662636 78.13365721 -85 80 C-85.495 80.495 -85.495 80.495 -86 81 C-85.91036938 82.69141656 -85.75422324 84.37959602 -85.5625 86.0625 C-85.46066406 86.98160156 -85.35882813 87.90070313 -85.25390625 88.84765625 C-85.17011719 89.55792969 -85.08632812 90.26820313 -85 91 C-84.34 91 -83.68 91 -83 91 C-82.95758277 93.33294775 -82.95907063 95.66702567 -83 98 C-83.495 98.495 -83.495 98.495 -84 99 C-85.65506535 109.13267786 -84.41902978 118.49136378 -82.40234375 128.45703125 C-81.99745558 131.01608174 -81.93035501 133.41384933 -82 136 C-81.01 135.67 -80.02 135.34 -79 135 C-79 136.65 -79 138.3 -79 140 C-78.34 140.33 -77.68 140.66 -77 141 C-77.020625 141.845625 -77.04125 142.69125 -77.0625 143.5625 C-76.99783768 147.11892777 -76.5614504 150.49093503 -76 154 C-73.69 154 -71.38 154 -69 154 C-69 154.66 -69 155.32 -69 156 C-69.99 156.99 -69.99 156.99 -71 158 C-70.34 158.99 -69.68 159.98 -69 161 C-68.505 161.99 -68.505 161.99 -68 163 C-67.34 163.66 -66.68 164.32 -66 165 C-65.875 167.625 -65.875 167.625 -66 170 C-65.34 170 -64.68 170 -64 170 C-63.67 169.01 -63.34 168.02 -63 167 C-60.70366176 170.44450737 -60.45983515 172.93812283 -60 177 C-59.34 177 -58.68 177 -58 177 C-57.67 177.99 -57.34 178.98 -57 180 C-56.38125 180.0825 -55.7625 180.165 -55.125 180.25 C-54.073125 180.62125 -54.073125 180.62125 -53 181 C-52.24868185 182.69863234 -51.50563617 184.40321643 -50.859375 186.14453125 C-49.52100028 189.03420394 -47.34616733 190.90747238 -45 193 C-49.37605015 193 -50.76901158 190.67860053 -53.80102539 187.71850586 C-54.54731201 186.96577393 -55.29359863 186.21304199 -56.0625 185.4375 C-56.82747803 184.66607666 -57.59245605 183.89465332 -58.38061523 183.09985352 C-64.98064572 176.28748211 -70.33025153 169.2387248 -75 161 C-75.36947754 160.35708008 -75.73895508 159.71416016 -76.11962891 159.05175781 C-87.07473958 139.64720123 -89.31493657 118.64433875 -89.3359375 96.69921875 C-89.34238776 95.08551422 -89.34911764 93.47181079 -89.35610962 91.85810852 C-89.36797003 88.50588263 -89.37180145 85.153759 -89.37060547 81.80151367 C-89.37040119 77.53051698 -89.39786552 73.26017745 -89.43214989 68.98933697 C-89.45448382 65.66824888 -89.45844128 62.34731856 -89.45738602 59.0261631 C-89.45972594 57.45185869 -89.46845738 55.87754885 -89.48405075 54.30331993 C-89.57390536 44.31049615 -89.43347685 35.11555021 -82.5625 27.1875 C-73.24702928 20.54304946 -59.69231293 17.81255711 -48.875 14.25 C-46.49549956 13.4639643 -44.11621108 12.67729012 -41.73698425 11.89042664 C-40.14206598 11.3629632 -38.54702448 10.83587224 -36.95185852 10.30915833 C-31.87546511 8.63029503 -26.81134646 6.91862856 -21.75390625 5.18359375 C-20.5107666 4.75981445 -19.26762695 4.33603516 -17.98681641 3.89941406 C-15.66769504 3.10755009 -13.35084201 2.3090029 -11.03662109 1.50292969 C-10.01262207 1.15520508 -8.98862305 0.80748047 -7.93359375 0.44921875 C-7.04728271 0.14330811 -6.16097168 -0.16260254 -5.24780273 -0.4777832 C-3 -1 -3 -1 0 0 Z " fill="#7B3EAF" transform="translate(333,70)"/>
<path d="M0 0 C10.03746128 2.23864919 19.62244195 5.4867516 29.3125 8.875 C31.56495949 9.65751265 33.81792509 10.43854945 36.07107544 11.21907043 C37.55027995 11.73196242 39.02902519 12.24618099 40.5072937 12.76176453 C44.08747851 14.00745808 47.67278952 15.22778757 51.27978516 16.39379883 C51.95921677 16.61452057 52.63864838 16.83524231 53.33866882 17.06265259 C55.18298193 17.65862825 57.02976205 18.24695421 58.87670898 18.8347168 C64.5858682 20.96477362 68.54310489 23.83815564 71.9375 28.875 C74.18603418 35.48833582 74.14387614 42.09394549 74 49 C73.34 49 72.68 49 72 49 C71.67 50.32 71.34 51.64 71 53 C70.95101562 51.94039062 70.90203125 50.88078125 70.8515625 49.7890625 C70.77653291 48.40101503 70.70098515 47.01299549 70.625 45.625 C70.5940625 44.92632812 70.563125 44.22765625 70.53125 43.5078125 C70.40500502 39.29814173 70.40500502 39.29814173 68 36 C68.66 36 69.32 36 70 36 C70 34.68 70 33.36 70 32 C68.35 31.34 66.7 30.68 65 30 C65 29.34 65 28.68 65 28 C64.67 28.66 64.34 29.32 64 30 C62.68 29.67 61.36 29.34 60 29 C60 26.69 60 24.38 60 22 C58.39679026 21.80448662 56.79237014 21.61888017 55.1875 21.4375 C54.29417969 21.33308594 53.40085937 21.22867188 52.48046875 21.12109375 C49.86624428 20.84341291 49.86624428 20.84341291 47 22 C44.8125 21.0625 44.8125 21.0625 43 20 C42.01 20.66 41.02 21.32 40 22 C39.505 20.515 39.505 20.515 39 19 C38.67 19.66 38.34 20.32 38 21 C37.34 21 36.68 21 36 21 C36 18.69 36 16.38 36 14 C31.71 14 27.42 14 23 14 C23 13.34 23 12.68 23 12 C22.01 11.67 21.02 11.34 20 11 C20 10.34 20 9.68 20 9 C18.9790625 9.12375 18.9790625 9.12375 17.9375 9.25 C14.64840132 8.97007671 12.74954345 7.80752585 9.98046875 6.08984375 C6.52338718 4.18742608 2.76740231 3.12765783 -1 2 C-0.67 1.34 -0.34 0.68 0 0 Z " fill="#C04FB0" transform="translate(372,74)"/>
<path d="M0 0 C0.66 0 1.32 0 2 0 C2.04690097 7.25135846 2.08215607 14.5026828 2.10362434 21.75416374 C2.11394212 25.1234575 2.1290087 28.49256652 2.15087891 31.86181641 C2.40251874 71.66531695 2.40251874 71.66531695 -3 86 C-3.66 85.67 -4.32 85.34 -5 85 C-4.9278125 84.41992188 -4.855625 83.83984375 -4.78125 83.2421875 C-4.2533613 78.79912426 -3.88503374 74.48368422 -4 70 C-3.01 69.505 -3.01 69.505 -2 69 C-1.97287847 67.083412 -1.95354903 65.1667127 -1.9375 63.25 C-1.92589844 62.18265625 -1.91429687 61.1153125 -1.90234375 60.015625 C-1.98489913 57.46631499 -2.25382442 55.42066409 -3 53 C-2.01 53 -1.02 53 0 53 C-0.144375 52.071875 -0.28875 51.14375 -0.4375 50.1875 C-0.63012228 48.79236431 -0.81710292 47.39644391 -1 46 C-1.09539062 45.28199219 -1.19078125 44.56398437 -1.2890625 43.82421875 C-2.03102817 37.17832625 -2.10647334 30.55470426 -2.125 23.875 C-2.13188843 22.4506665 -2.13188843 22.4506665 -2.13891602 20.99755859 C-2.13589478 19.6645874 -2.13589478 19.6645874 -2.1328125 18.3046875 C-2.13168457 17.50015137 -2.13055664 16.69561523 -2.12939453 15.86669922 C-2 14 -2 14 -1 13 C-0.76518307 10.81707226 -0.58636677 8.62796826 -0.4375 6.4375 C-0.35371094 5.23996094 -0.26992188 4.04242188 -0.18359375 2.80859375 C-0.12300781 1.88175781 -0.06242187 0.95492187 0 0 Z " fill="#C05F9F" transform="translate(444,123)"/>
<path d="M0 0 C-3.96 1.98 -3.96 1.98 -8 4 C-7.34 4.33 -6.68 4.66 -6 5 C-6 5.66 -6 6.32 -6 7 C-6.66 7 -7.32 7 -8 7 C-8.33 7.66 -8.66 8.32 -9 9 C-11.32156597 9.40729228 -13.6568787 9.74438677 -16 10 C-16 9.34 -16 8.68 -16 8 C-16.886875 8.495 -17.77375 8.99 -18.6875 9.5 C-21.87586238 10.94378674 -23.58187546 11.30159922 -27 11 C-27.2475 11.61875 -27.495 12.2375 -27.75 12.875 C-29.27221172 15.46275992 -30.16777975 16.05592658 -33 17 C-36.9699753 17.33083127 -39.58794404 17.09972674 -43 15 C-43 15.66 -43 16.32 -43 17 C-47 18.33333333 -51 19.66666667 -55 21 C-55.33 19.68 -55.66 18.36 -56 17 C-50.38089488 15.07884654 -44.76158323 13.15829873 -39.14208984 11.23828125 C-37.23545919 10.58674986 -35.3288824 9.93506081 -33.42236328 9.28320312 C-32.50052246 8.96802734 -31.57868164 8.65285156 -30.62890625 8.328125 C-29.71709595 8.01637329 -28.80528564 7.70462158 -27.86584473 7.38342285 C-25.18554614 6.46845956 -22.50397207 5.55731159 -19.82226562 4.64648438 C-16.90787236 3.65566467 -13.99983835 2.65064762 -11.09960938 1.61914062 C-9.49569336 1.05743164 -9.49569336 1.05743164 -7.859375 0.484375 C-6.97217773 0.16694336 -6.08498047 -0.15048828 -5.17089844 -0.47753906 C-3 -1 -3 -1 0 0 Z " fill="#9040B8" transform="translate(333,70)"/>
<path d="M0 0 C0.66 0 1.32 0 2 0 C2 0.99 2 1.98 2 3 C-3.00363473 3.83177305 -7.79941113 4.09855512 -12.875 4 C-18.79582115 3.90730613 -24.01921718 4.33546858 -30 5 C-30.33 15.56 -30.66 26.12 -31 37 C-34.23751678 38.07917226 -36.57751771 38.11425601 -39.98046875 38.09765625 C-41.14384766 38.09443359 -42.30722656 38.09121094 -43.50585938 38.08789062 C-44.72080078 38.07951172 -45.93574219 38.07113281 -47.1875 38.0625 C-48.41404297 38.05798828 -49.64058594 38.05347656 -50.90429688 38.04882812 C-53.93624668 38.03703065 -56.96809906 38.02056921 -60 38 C-60 37.34 -60 36.68 -60 36 C-51.42 36 -42.84 36 -34 36 C-34.02320313 34.03675781 -34.04640625 32.07351562 -34.0703125 30.05078125 C-34.08907194 27.47135797 -34.10727195 24.89193058 -34.125 22.3125 C-34.14175781 21.01892578 -34.15851563 19.72535156 -34.17578125 18.39257812 C-34.18222656 17.14541016 -34.18867188 15.89824219 -34.1953125 14.61328125 C-34.20578613 13.46641846 -34.21625977 12.31955566 -34.22705078 11.13793945 C-33.99827269 7.97612784 -33.45271532 5.805672 -32 3 C-29.0780231 1.53901155 -26.50106525 1.88865099 -23.2421875 1.90234375 C-22.24761032 1.90446617 -22.24761032 1.90446617 -21.23294067 1.90663147 C-19.11358137 1.91223246 -16.99432741 1.924785 -14.875 1.9375 C-13.43880361 1.94251488 -12.00260556 1.94707781 -10.56640625 1.95117188 C-7.04423655 1.96220218 -3.52212855 1.97946741 0 2 C0 1.34 0 0.68 0 0 Z " fill="#AE49AA" transform="translate(393,190)"/>
<path d="M0 0 C1.16781006 0.00523682 2.33562012 0.01047363 3.53881836 0.01586914 C4.79887695 0.0190918 6.05893555 0.02231445 7.35717773 0.02563477 C8.6976732 0.03399136 10.03816799 0.04245632 11.37866211 0.05102539 C12.72306153 0.05603879 14.06746271 0.06060197 15.41186523 0.06469727 C18.71334151 0.07653051 22.01473014 0.09301568 25.31616211 0.11352539 C25.31616211 0.44352539 25.31616211 0.77352539 25.31616211 1.11352539 C16.73616211 1.44352539 8.15616211 1.77352539 -0.68383789 2.11352539 C-0.7747168 5.07579102 -0.7747168 5.07579102 -0.86743164 8.09790039 C-0.95184085 10.68644944 -1.03648866 13.27499072 -1.12133789 15.86352539 C-1.1606543 17.16547852 -1.1999707 18.46743164 -1.24047852 19.80883789 C-1.30332031 21.68442383 -1.30332031 21.68442383 -1.36743164 23.59790039 C-1.40408936 24.75 -1.44074707 25.90209961 -1.47851562 27.08911133 C-1.64943964 29.6068363 -1.81932244 31.7490983 -2.68383789 34.11352539 C-5.58308155 35.56314722 -8.20684144 35.3347902 -11.44165039 35.42993164 C-12.43622757 35.46110329 -12.43622757 35.46110329 -13.45089722 35.49290466 C-15.57010484 35.5583177 -17.68943689 35.61724644 -19.80883789 35.67602539 C-21.2450487 35.71921848 -22.68124691 35.76283303 -24.11743164 35.80688477 C-27.63944134 35.91478448 -31.16154477 36.01391782 -34.68383789 36.11352539 C-35.01383789 45.68352539 -35.34383789 55.25352539 -35.68383789 65.11352539 C-37.99714804 61.64356016 -37.93014891 60.29346945 -37.91430664 56.20336914 C-37.91237305 55.04901367 -37.91043945 53.8946582 -37.90844727 52.70532227 C-37.89620117 51.4994043 -37.88395508 50.29348633 -37.87133789 49.05102539 C-37.87069336 47.84124023 -37.87004883 46.63145508 -37.86938477 45.38500977 C-37.8241541 36.3941578 -37.8241541 36.3941578 -36.68383789 34.11352539 C-35.49624878 34.11521729 -35.49624878 34.11521729 -34.28466797 34.11694336 C-30.68769618 34.10481725 -27.09283977 34.04715405 -23.49633789 33.98852539 C-21.62751953 33.99239258 -21.62751953 33.99239258 -19.72094727 33.99633789 C-12.62693689 33.88152575 -12.62693689 33.88152575 -6.36743164 30.89086914 C-3.30075254 25.90389134 -3.93997371 19.44291246 -3.93383789 13.80102539 C-3.90085247 11.42988078 -3.86458192 9.05877878 -3.82446289 6.68774414 C-3.81962891 5.64191162 -3.81479492 4.5960791 -3.80981445 3.51855469 C-3.63122822 0.10914971 -3.43597899 0.14534069 0 0 Z " fill="#8A489D" transform="translate(332.683837890625,126.886474609375)"/>
<path d="M0 0 C0.99 0.33 1.98 0.66 3 1 C-2.33020353 7.13220175 -7.71210162 12.85002353 -14 18 C-14.7940625 18.65871094 -15.588125 19.31742187 -16.40625 19.99609375 C-21.73131523 24.34325348 -27.2045273 28.30433625 -33 32 C-33.66 31.67 -34.32 31.34 -35 31 C-32.22813534 27.89551159 -29.38179973 26.05413548 -25.7421875 24.0703125 C-21.98119263 21.75974614 -19.41878679 18.62818019 -17 15 C-17.66 14.01 -18.32 13.02 -19 12 C-17.88625 11.566875 -16.7725 11.13375 -15.625 10.6875 C-11.82487666 9.30088881 -11.82487666 9.30088881 -10 6 C-10 5.34 -10 4.68 -10 4 C-6.97265625 3.75585938 -6.97265625 3.75585938 -3.9453125 3.51171875 C-1.60480784 3.12606964 -1.60480784 3.12606964 0 0 Z " fill="#D2669E" transform="translate(419,245)"/>
<path d="M0 0 C0.66 0 1.32 0 2 0 C2 1.32 2 2.64 2 4 C12.56 4 23.12 4 34 4 C37.37761355 11.88109827 37.37761355 11.88109827 37.546875 15.26171875 C37.60681641 16.35129883 37.60681641 16.35129883 37.66796875 17.46289062 C37.69503906 18.19701172 37.72210938 18.93113281 37.75 19.6875 C37.79253906 20.43322266 37.83507812 21.17894531 37.87890625 21.94726562 C38.20910189 28.80188261 38.20910189 28.80188261 37 32 C36.01 32.33 35.02 32.66 34 33 C33.505 20.13 33.505 20.13 33 7 C29.78636719 6.90912109 29.78636719 6.90912109 26.5078125 6.81640625 C24.43599905 6.75462185 22.36424053 6.69123212 20.29248047 6.62768555 C18.8511238 6.58433769 17.40971582 6.54266248 15.96826172 6.50268555 C13.89795459 6.44497912 11.82790568 6.38128629 9.7578125 6.31640625 C7.88826904 6.26141968 7.88826904 6.26141968 5.98095703 6.20532227 C3 6 3 6 1 5 C0.375 2.4375 0.375 2.4375 0 0 Z " fill="#AB51A5" transform="translate(359,156)"/>
<path d="M0 0 C4.21742593 -0.12365029 8.43389111 -0.21435665 12.65258789 -0.2746582 C14.08734514 -0.29979524 15.52197441 -0.33391108 16.95629883 -0.37719727 C19.0193637 -0.43789665 21.08073615 -0.46621353 23.14453125 -0.48828125 C25.00621948 -0.52755737 25.00621948 -0.52755737 26.90551758 -0.56762695 C30 0 30 0 31.91015625 2.18554688 C33.07739994 5.19988049 33.34693883 7.29931631 33.29296875 10.51953125 C33.2784668 12.0519043 33.2784668 12.0519043 33.26367188 13.61523438 C33.23853516 14.67033203 33.21339844 15.72542969 33.1875 16.8125 C33.16719727 18.42415039 33.16719727 18.42415039 33.14648438 20.06835938 C33.11122577 22.71275455 33.06194366 25.35611748 33 28 C32.34 28 31.68 28 31 28 C30.505 16.615 30.505 16.615 30 5 C26.03413001 3.017065 24.66825536 2.76640148 20.4296875 2.83984375 C19.36878906 2.85080078 18.30789063 2.86175781 17.21484375 2.87304688 C15.56162109 2.90495117 15.56162109 2.90495117 13.875 2.9375 C11.68496027 2.9718386 9.49484979 3.00200082 7.3046875 3.02734375 C5.8503833 3.05429321 5.8503833 3.05429321 4.36669922 3.08178711 C2 3 2 3 0 2 C0 1.34 0 0.68 0 0 Z " fill="#8F4BA1" transform="translate(298,192)"/>
<path d="M0 0 C6.36734694 0.36734694 6.36734694 0.36734694 9.3125 3.3125 C9.869375 4.199375 10.42625 5.08625 11 6 C11.391875 6.598125 11.78375 7.19625 12.1875 7.8125 C14.44477362 13.88977512 14.13314899 20.60884869 14 27 C13.34 27 12.68 27 12 27 C11.67 28.32 11.34 29.64 11 31 C10.95101563 29.94039062 10.90203125 28.88078125 10.8515625 27.7890625 C10.77653291 26.40101503 10.70098515 25.01299549 10.625 23.625 C10.5940625 22.92632812 10.563125 22.22765625 10.53125 21.5078125 C10.40500502 17.29814173 10.40500502 17.29814173 8 14 C8.66 14 9.32 14 10 14 C10 12.68 10 11.36 10 10 C7.525 9.01 7.525 9.01 5 8 C5 7.34 5 6.68 5 6 C4.67 6.66 4.34 7.32 4 8 C2.68 7.67 1.36 7.34 0 7 C0 4.69 0 2.38 0 0 Z " fill="#D64FAF" transform="translate(432,96)"/>
<path d="M0 0 C0.33 0.66 0.66 1.32 1 2 C2.423125 1.9690625 2.423125 1.9690625 3.875 1.9375 C7 2 7 2 9 3 C9 3.66 9 4.32 9 5 C13.62114562 6.6609299 13.62114562 6.6609299 18.41015625 6.5078125 C21.33329576 5.93464789 23.34637557 6.2083027 26.25 6.8125 C27.12140625 6.98394531 27.9928125 7.15539062 28.890625 7.33203125 C29.58671875 7.55246094 30.2828125 7.77289063 31 8 C31.495 8.99 31.495 8.99 32 10 C26.26790568 12.56222591 22.073999 12.53024505 16 11 C9.48379499 8.41020896 3.22628835 5.2143492 -3 2 C-2.01 1.34 -1.02 0.68 0 0 Z " fill="#D751AE" transform="translate(320,282)"/>
<path d="M0 0 C1.65 0.66 3.3 1.32 5 2 C1.60809175 5.70989964 -1.77815966 8.17935471 -6.08984375 10.7421875 C-8.24436314 12.06348089 -8.24436314 12.06348089 -10.5625 14.625 C-13.55673194 17.54245676 -16.10915345 18.55046893 -20 20 C-19.38545304 16.00544473 -17.29353263 13.25533664 -15 10 C-14.34 10.33 -13.68 10.66 -13 11 C-12.21625 10.34 -11.4325 9.68 -10.625 9 C-8 7 -8 7 -6 7 C-5.67 6.01 -5.34 5.02 -5 4 C-3.37667033 2.61423077 -1.71275535 1.27358732 0 0 Z " fill="#DB5CA8" transform="translate(394,263)"/>
<path d="M0 0 C0.33 0 0.66 0 1 0 C1.86020349 6.19960947 2.01800838 11.73559696 1.25 17.9375 C1.11392334 19.10611572 1.11392334 19.10611572 0.97509766 20.29833984 C0.24831303 26.07057147 -0.94271092 31.54132631 -3 37 C-3.66 36.67 -4.32 36.34 -5 36 C-4.9278125 35.41992188 -4.855625 34.83984375 -4.78125 34.2421875 C-4.2533613 29.79912426 -3.88503374 25.48368422 -4 21 C-3.34 20.67 -2.68 20.34 -2 20 C-1.97287847 18.083412 -1.95354903 16.1667127 -1.9375 14.25 C-1.92589844 13.18265625 -1.91429687 12.1153125 -1.90234375 11.015625 C-1.98489913 8.46631499 -2.25382442 6.42066409 -3 4 C-2.01 4 -1.02 4 0 4 C0 2.68 0 1.36 0 0 Z " fill="#CF60A0" transform="translate(444,172)"/>
<path d="M0 0 C3.7021288 3.23052003 5.97567775 7.58300667 8.5078125 11.73046875 C10.95430659 15.64318362 13.50136968 18.92260945 17 22 C17.66 22 18.32 22 19 22 C19.33 22.99 19.66 23.98 20 25 C20.61875 25.0825 21.2375 25.165 21.875 25.25 C22.57625 25.4975 23.2775 25.745 24 26 C24.75131815 27.69863234 25.49436383 29.40321643 26.140625 31.14453125 C27.47899972 34.03420394 29.65383267 35.90747238 32 38 C27.62320445 38 26.22940509 35.67747468 23.19750977 32.71606445 C22.45170654 31.96413818 21.70590332 31.21221191 20.9375 30.4375 C19.79655884 29.29124146 19.79655884 29.29124146 18.63256836 28.12182617 C10.75114112 20.00915902 3.19970162 11.03980819 0 0 Z " fill="#904DA5" transform="translate(256,225)"/>
<path d="M0 0 C-3.96 1.98 -3.96 1.98 -8 4 C-7.34 4.33 -6.68 4.66 -6 5 C-6 5.66 -6 6.32 -6 7 C-6.66 7 -7.32 7 -8 7 C-8.33 7.66 -8.66 8.32 -9 9 C-11.32156597 9.40729228 -13.6568787 9.74438677 -16 10 C-16 9.34 -16 8.68 -16 8 C-16.598125 8.20625 -17.19625 8.4125 -17.8125 8.625 C-20 9 -20 9 -23 7 C-21.35 7 -19.7 7 -18 7 C-18 6.01 -18 5.02 -18 4 C-15.56592995 3.13475247 -13.12856816 2.28257135 -10.6875 1.4375 C-9.99720703 1.19064453 -9.30691406 0.94378906 -8.59570312 0.68945312 C-3.33984375 -1.11328125 -3.33984375 -1.11328125 0 0 Z " fill="#A33EC1" transform="translate(333,70)"/>
<path d="M0 0 C0.33 0.66 0.66 1.32 1 2 C3.31 2 5.62 2 8 2 C8 2.66 8 3.32 8 4 C7.34 4.66 6.68 5.32 6 6 C6.99 7.485 6.99 7.485 8 9 C8.33 9.66 8.66 10.32 9 11 C9.66 11.66 10.32 12.32 11 13 C11.125 15.625 11.125 15.625 11 18 C11.66 18 12.32 18 13 18 C13.33 17.01 13.66 16.02 14 15 C16.4294516 18.6441774 16.16179575 20.71241272 16 25 C12.02822548 21.30238337 9.15808794 17.48029564 6.3125 12.875 C5.53781861 11.64319257 4.76308102 10.41142047 3.98828125 9.1796875 C3.33214844 8.13039062 2.67601562 7.08109375 2 6 C1.34 5.01 0.68 4.02 0 3 C0 2.01 0 1.02 0 0 Z " fill="#993DC1" transform="translate(256,222)"/>
<path d="M0 0 C0.33 0 0.66 0 1 0 C1.19511725 2.74965228 1.38136433 5.49942132 1.5625 8.25 C1.61857422 9.02730469 1.67464844 9.80460938 1.73242188 10.60546875 C1.78076172 11.35957031 1.82910156 12.11367187 1.87890625 12.890625 C1.9260376 13.58188477 1.97316895 14.27314453 2.02172852 14.98535156 C1.99781009 17.20304626 1.79858226 18.92542521 1 21 C0.01 21.33 -0.98 21.66 -2 22 C-2.05416741 19.27056463 -2.09375225 16.54221436 -2.125 13.8125 C-2.14175781 13.04357422 -2.15851563 12.27464844 -2.17578125 11.48242188 C-2.21266851 7.1850566 -1.9958504 3.92098169 0 0 Z " fill="#B957A7" transform="translate(395,167)"/>
<path d="M0 0 C2 3 2 3 2 5 C2.66 5 3.32 5 4 5 C4.04241723 7.33294775 4.04092937 9.66702567 4 12 C3.67 12.33 3.34 12.66 3 13 C2.60056824 15.52195967 2.24920152 18.02963656 1.9375 20.5625 C1.84662109 21.27341797 1.75574219 21.98433594 1.66210938 22.71679688 C1.43760497 24.47738403 1.21831603 26.23863478 1 28 C0.67 28 0.34 28 0 28 C0 18.76 0 9.52 0 0 Z " fill="#8438BE" transform="translate(246,156)"/>
<path d="M0 0 C0.66 0.33 1.32 0.66 2 1 C-5.53014927 8.70621391 -13.88893028 15.26340055 -23 21 C-23.66 20.67 -24.32 20.34 -25 20 C-22.22212174 16.88877635 -19.36687304 15.04496583 -15.71875 13.05859375 C-13.09027369 11.4396913 -11.14974416 9.20217695 -9 7 C-6.92347745 5.36251365 -4.80836061 3.79256376 -2.671875 2.234375 C-1.05529654 1.10491666 -1.05529654 1.10491666 0 0 Z " fill="#C4659A" transform="translate(409,256)"/>
<path d="M0 0 C-6 3 -6 3 -8.3125 4 C-10.35003098 4.95854206 -10.35003098 4.95854206 -11 8 C-13.31 8.33 -15.62 8.66 -18 9 C-18.33 10.32 -18.66 11.64 -19 13 C-19.66 12.67 -20.32 12.34 -21 12 C-17.34408263 5.44981472 -12.54019548 2.4695151 -5.6875 -0.375 C-3 -1 -3 -1 0 0 Z " fill="#7C43B7" transform="translate(267,92)"/>
<path d="M0 0 C5.44567686 1.02862785 10.11817117 2.24614784 15 5 C14.01 5.99 13.02 6.98 12 8 C11.236875 7.62875 10.47375 7.2575 9.6875 6.875 C8.3571875 6.441875 8.3571875 6.441875 7 6 C6.01 6.66 5.02 7.32 4 8 C3.67 7.01 3.34 6.02 3 5 C2.67 5.66 2.34 6.32 2 7 C1.34 7 0.68 7 0 7 C0 4.69 0 2.38 0 0 Z " fill="#CE4AB1" transform="translate(408,88)"/>
<path d="M0 0 C0.33 0.66 0.66 1.32 1 2 C2.423125 1.9690625 2.423125 1.9690625 3.875 1.9375 C7 2 7 2 9 3 C9 3.66 9 4.32 9 5 C11.97 5.495 11.97 5.495 15 6 C15 6.99 15 7.98 15 9 C15.99 9.33 16.98 9.66 18 10 C17.01 10.495 17.01 10.495 16 11 C14.02880859 10.28735352 14.02880859 10.28735352 11.6484375 9.12890625 C10.79765625 8.71962891 9.946875 8.31035156 9.0703125 7.88867188 C8.18085938 7.45103516 7.29140625 7.01339844 6.375 6.5625 C5.4778125 6.12873047 4.580625 5.69496094 3.65625 5.24804688 C1.43397755 4.17237245 -0.78445719 3.08945069 -3 2 C-2.01 1.34 -1.02 0.68 0 0 Z " fill="#BC57A0" transform="translate(320,282)"/>
<path d="M0 0 C6.87742809 0.44370504 12.85198614 1.76741335 19 5 C19.33 5.66 19.66 6.32 20 7 C12.75361298 5.9706067 6.53504298 4.32399717 0 1 C0 0.67 0 0.34 0 0 Z " fill="#C762A6" transform="translate(417,90)"/>
<path d="M0 0 C6.52307692 0.61538462 6.52307692 0.61538462 8.9375 2.5625 C9.288125 3.036875 9.63875 3.51125 10 4 C9.67 4.66 9.34 5.32 9 6 C7.68 6 6.36 6 5 6 C4.67 6.66 4.34 7.32 4 8 C2.68 7.67 1.36 7.34 0 7 C0 4.69 0 2.38 0 0 Z " fill="#D158A6" transform="translate(432,96)"/>
<path d="M0 0 C0.66 0 1.32 0 2 0 C2 0.99 2 1.98 2 3 C-3.06437575 3.8451631 -7.92503872 4.0977633 -13.0625 4 C-16.9001361 3.92738626 -20.56849968 3.92799995 -24.37109375 4.5625 C-27 5 -27 5 -29 4 C-29 3.34 -29 2.68 -29 2 C-19.43 2 -9.86 2 0 2 C0 1.34 0 0.68 0 0 Z " fill="#AD529F" transform="translate(393,190)"/>
<path d="M0 0 C-0.33 0.99 -0.66 1.98 -1 3 C-2.9609375 3.9140625 -2.9609375 3.9140625 -5.375 4.625 C-6.16648437 4.86476563 -6.95796875 5.10453125 -7.7734375 5.3515625 C-8.50820313 5.56554687 -9.24296875 5.77953125 -10 6 C-10.99 6.33 -11.98 6.66 -13 7 C-13.33 5.68 -13.66 4.36 -14 3 C-12.23358317 2.3012307 -10.46167336 1.61633417 -8.6875 0.9375 C-7.20830078 0.36322266 -7.20830078 0.36322266 -5.69921875 -0.22265625 C-3 -1 -3 -1 0 0 Z " fill="#8549B7" transform="translate(291,84)"/>
<path d="M0 0 C0.66 0 1.32 0 2 0 C1.40380045 4.86896303 0.43023178 9.32790951 -1 14 C-2.32 14.33 -3.64 14.66 -5 15 C-4.67 11.37 -4.34 7.74 -4 4 C-2.68 3.67 -1.36 3.34 0 3 C0 2.01 0 1.02 0 0 Z " fill="#E563A6" transform="translate(438,204)"/>
<path d="M0 0 C-0.38597015 2.79828356 -0.80136573 3.8205884 -2.9375 5.75 C-5 7 -5 7 -7 7 C-7.33 8.65 -7.66 10.3 -8 12 C-8.33 12 -8.66 12 -9 12 C-8.91253716 10.56138706 -8.80434652 9.12402492 -8.6875 7.6875 C-8.62949219 6.88699219 -8.57148438 6.08648437 -8.51171875 5.26171875 C-7.39599736 0.33040055 -4.69523172 -0.38069446 0 0 Z " fill="#7F35CC" transform="translate(256,100)"/>
<path d="M0 0 C8.95653552 2.01768108 17.41586758 4.78729955 26 8 C22.86563145 9.02389372 21.18872004 8.98672733 18.125 7.8125 C13.94227721 6.29915306 9.7176242 5.01753623 5.4375 3.8125 C3.61025391 3.29623047 3.61025391 3.29623047 1.74609375 2.76953125 C0.83988281 2.51558594 -0.06632812 2.26164062 -1 2 C-0.67 1.34 -0.34 0.68 0 0 Z " fill="#AE58A3" transform="translate(372,74)"/>
<path d="M0 0 C0.33 0 0.66 0 1 0 C1 4.29 1 8.58 1 13 C0.34 13 -0.32 13 -1 13 C-1 13.99 -1 14.98 -1 16 C-2.98 16.33 -4.96 16.66 -7 17 C-6.21625 16.05125 -5.4325 15.1025 -4.625 14.125 C-1.45929019 9.75757599 -0.70943064 5.26249294 0 0 Z " fill="#9B4EA4" transform="translate(330,144)"/>
<path d="M0 0 C2.31 0 4.62 0 7 0 C7.125 2.875 7.125 2.875 7 6 C6.34 6.66 5.68 7.32 5 8 C4.35232207 10.57061311 4.35232207 10.57061311 4 13 C3.67 13 3.34 13 3 13 C2.86722656 12.31292969 2.73445313 11.62585938 2.59765625 10.91796875 C2.42105469 10.01691406 2.24445313 9.11585938 2.0625 8.1875 C1.88847656 7.29417969 1.71445312 6.40085938 1.53515625 5.48046875 C1.02258847 2.88602829 1.02258847 2.88602829 0 0 Z " fill="#D048B7" transform="translate(393,160)"/>
<path d="M0 0 C5.92863717 1.16651426 11.38798394 2.75519358 17 5 C17 5.33 17 5.66 17 6 C10.83381819 6.40214229 5.82254243 4.96818336 0 3 C0 2.01 0 1.02 0 0 Z " fill="#C055AA" transform="translate(402,84)"/>
<path d="M0 0 C0.66 0 1.32 0 2 0 C2 0.66 2 1.32 2 2 C2.99 2.33 3.98 2.66 5 3 C3.8553125 3.4021875 3.8553125 3.4021875 2.6875 3.8125 C0.12619116 4.94424112 -1.19692938 5.91223401 -3 8 C-4.32 7.34 -5.64 6.68 -7 6 C-7 5.01 -7 4.02 -7 3 C-6.21625 2.87625 -5.4325 2.7525 -4.625 2.625 C-1.85942178 2.20882007 -1.85942178 2.20882007 0 0 Z " fill="#E459A8" transform="translate(408,253)"/>
<path d="M0 0 C1.2065625 0.0309375 1.2065625 0.0309375 2.4375 0.0625 C2.7675 1.7125 3.0975 3.3625 3.4375 5.0625 C2.1175 5.0625 0.7975 5.0625 -0.5625 5.0625 C-1.2225 6.3825 -1.8825 7.7025 -2.5625 9.0625 C-2.8925 9.0625 -3.2225 9.0625 -3.5625 9.0625 C-3.66015625 2.91015625 -3.66015625 2.91015625 -3.5625 1.0625 C-2.5625 0.0625 -2.5625 0.0625 0 0 Z " fill="#E560A7" transform="translate(419.5625,239.9375)"/>
<path d="M0 0 C0.66 0 1.32 0 2 0 C2.33 0.66 2.66 1.32 3 2 C5.32156597 2.40729228 7.6568787 2.74438677 10 3 C8.68 4.65 7.36 6.3 6 8 C6 7.34 6 6.68 6 6 C3.69 5.67 1.38 5.34 -1 5 C-1 4.34 -1 3.68 -1 3 C-1.66 2.67 -2.32 2.34 -3 2 C-2.01 2 -1.02 2 0 2 C0 1.34 0 0.68 0 0 Z " fill="#CC46B5" transform="translate(318,278)"/>
<path d="M0 0 C4.75 1.875 4.75 1.875 7 3 C7 3.66 7 4.32 7 5 C9.65228812 6.07525194 12.28368454 7.09456151 15 8 C16.84499398 9.87617698 18.3683599 11.92737609 20 14 C15.32208618 12.42879231 11.70075271 9.86880384 7.75 7 C7.11320312 6.54882812 6.47640625 6.09765625 5.8203125 5.6328125 C1.12982766 2.25965532 1.12982766 2.25965532 0 0 Z " fill="#A056A1" transform="translate(288,264)"/>
<path d="M0 0 C0.66 0.33 1.32 0.66 2 1 C1.67 2.32 1.34 3.64 1 5 C1.66 5 2.32 5 3 5 C3.33 5.66 3.66 6.32 4 7 C5.64363134 7.72159424 7.31050386 8.39351421 9 9 C9 9.66 9 10.32 9 11 C3.40717158 9.63589551 0.08806189 6.84616474 -4 3 C-2.68 2.01 -1.36 1.02 0 0 Z " fill="#B651AC" transform="translate(308,272)"/>
<path d="M0 0 C6.27 0 12.54 0 19 0 C19 0.33 19 0.66 19 1 C9.595 1.99 9.595 1.99 0 3 C0 2.01 0 1.02 0 0 Z " fill="#9B3DBE" transform="translate(304,194)"/>
<path d="M0 0 C2.1385485 2.1385485 2.42655063 3.13275314 3 6 C-1.625 8.125 -1.625 8.125 -5 7 C-4.67 6.01 -4.34 5.02 -4 4 C-3.01 3.67 -2.02 3.34 -1 3 C-0.67 2.01 -0.34 1.02 0 0 Z " fill="#8734C7" transform="translate(276,87)"/>
<path d="M0 0 C0.66 0.66 1.32 1.32 2 2 C1.625 4.125 1.625 4.125 1 6 C1.66 6.33 2.32 6.66 3 7 C1.35 7.33 -0.3 7.66 -2 8 C-2 7.01 -2 6.02 -2 5 C-2.66 4.67 -3.32 4.34 -4 4 C-3.01 3.67 -2.02 3.34 -1 3 C-0.67 2.01 -0.34 1.02 0 0 Z M-5 8 C-4.01 8.33 -3.02 8.66 -2 9 C-2.99 9.66 -3.98 10.32 -5 11 C-5 10.01 -5 9.02 -5 8 Z " fill="#CF47B2" transform="translate(397,185)"/>
<path d="M0 0 C-1.66215488 0.71235209 -3.32455944 1.42412775 -4.98828125 2.1328125 C-6.30312308 2.69959869 -7.61332427 3.27730751 -8.91796875 3.8671875 C-11.79737895 5.15647565 -13.80679558 6 -17 6 C-17 5.34 -17 4.68 -17 4 C-14.73291675 3.1344953 -12.46224921 2.28240685 -10.1875 1.4375 C-9.54490234 1.19064453 -8.90230469 0.94378906 -8.24023438 0.68945312 C-3.33984375 -1.11328125 -3.33984375 -1.11328125 0 0 Z " fill="#974FA3" transform="translate(333,70)"/>
<path d="M0 0 C0.33 0.66 0.66 1.32 1 2 C-1.64 5.63 -4.28 9.26 -7 13 C-8 9 -8 9 -7.3125 6.875 C-5.7635558 4.66222257 -4.41196971 4.1306108 -2 3 C-1.34 2.01 -0.68 1.02 0 0 Z " fill="#C86A9A" transform="translate(430,231)"/>
<path d="M0 0 C2.4375 0.75 2.4375 0.75 5 2 C5.9375 3.875 5.9375 3.875 6 6 C5.36919332 7.35066841 4.70592715 8.68703043 4 10 C3.32845067 8.71086513 2.66291141 7.41859796 2 6.125 C1.62875 5.40570313 1.2575 4.68640625 0.875 3.9453125 C0 2 0 2 0 0 Z " fill="#864AB0" transform="translate(251,215)"/>
<path d="M0 0 C0.66 0.33 1.32 0.66 2 1 C0.8803014 2.00593243 -0.2459412 3.0045849 -1.375 4 C-2.00148437 4.556875 -2.62796875 5.11375 -3.2734375 5.6875 C-5 7 -5 7 -7 7 C-7.33 8.32 -7.66 9.64 -8 11 C-8.66 10.67 -9.32 10.34 -10 10 C-7.19372222 5.25091453 -4.74908547 2.80627778 0 0 Z " fill="#72489F" transform="translate(256,94)"/>
<path d="M0 0 C0.33 0 0.66 0 1 0 C0.57910004 5.60461531 0.08386889 10.72086547 -2 16 C-2.66 15.67 -3.32 15.34 -4 15 C-3.71125 14.01 -3.4225 13.02 -3.125 12 C-1.98624782 8.02250133 -0.98680107 4.01769007 0 0 Z " fill="#C46C95" transform="translate(443,193)"/>
<path d="M0 0 C0 0.66 0 1.32 0 2 C-2.31 2.33 -4.62 2.66 -7 3 C-7 3.66 -7 4.32 -7 5 C-8.65 5 -10.3 5 -12 5 C-12 4.34 -12 3.68 -12 3 C-10.56445975 2.49440092 -9.1264798 1.9957251 -7.6875 1.5 C-6.88699219 1.2215625 -6.08648437 0.943125 -5.26171875 0.65625 C-3 0 -3 0 0 0 Z " fill="#A359A5" transform="translate(346,65)"/>
<path d="M0 0 C5.27315333 0.4452885 10.01770224 1.08373163 15 3 C11.64783266 4.10176129 9.24878922 3.89303058 5.8125 3.1875 C4.93207031 3.01605469 4.05164063 2.84460938 3.14453125 2.66796875 C2.43683594 2.44753906 1.72914063 2.22710937 1 2 C0.67 1.34 0.34 0.68 0 0 Z " fill="#B668A1" transform="translate(417,90)"/>
<path d="M0 0 C0.66 0.99 1.32 1.98 2 3 C-0.90600261 4.25664978 -2.79604584 5 -6 5 C-6 4.34 -6 3.68 -6 3 C-6.66 2.67 -7.32 2.34 -8 2 C-5.36 2 -2.72 2 0 2 C0 1.34 0 0.68 0 0 Z " fill="#CB46B8" transform="translate(401,83)"/>
<path d="M0 0 C0.99 0.33 1.98 0.66 3 1 C2.8125 2.875 2.8125 2.875 2 5 C-0.5625 6.25 -0.5625 6.25 -3 7 C-2.38722388 4.03824877 -1.74627478 2.61941217 0 0 Z " fill="#D260A1" transform="translate(377,276)"/>
<path d="M0 0 C2.72574271 0.37330824 3.80822085 0.79194601 5.703125 2.84765625 C6.21359375 3.57855469 6.7240625 4.30945313 7.25 5.0625 C8.03117187 6.16271484 8.03117187 6.16271484 8.828125 7.28515625 C9.21484375 7.85105469 9.6015625 8.41695313 10 9 C6.78956118 7.61811547 4.95063635 6.07578097 2.75 3.375 C2.22921875 2.74335938 1.7084375 2.11171875 1.171875 1.4609375 C0.78515625 0.97882813 0.3984375 0.49671875 0 0 Z " fill="#9552A2" transform="translate(278,255)"/>
<path d="M0 0 C2.0625 1.625 2.0625 1.625 4 4 C3.75 7.25 3.75 7.25 3 10 C0.70366176 6.55549263 0.45983515 4.06187717 0 0 Z " fill="#874EAA" transform="translate(248,204)"/>
<path d="M0 0 C-0.33 2.97 -0.66 5.94 -1 9 C-3 7 -3 7 -3.125 3.875 C-3.08375 2.92625 -3.0425 1.9775 -3 1 C-1 0 -1 0 0 0 Z " fill="#DE65A2" transform="translate(443,192)"/>
<path d="M0 0 C0.33 0 0.66 0 1 0 C1 1.98 1 3.96 1 6 C-0.98 6.33 -2.96 6.66 -5 7 C-4.19152271 5.83054208 -3.37810888 4.66449539 -2.5625 3.5 C-2.11003906 2.8503125 -1.65757812 2.200625 -1.19140625 1.53125 C-0.79824219 1.0259375 -0.40507812 0.520625 0 0 Z " fill="#9E45B8" transform="translate(328,154)"/>
<path d="M0 0 C2.125 0.375 2.125 0.375 4 1 C4 2.32 4 3.64 4 5 C1.13275314 4.42655063 0.1385485 4.1385485 -2 2 C-1.34 1.34 -0.68 0.68 0 0 Z " fill="#CF50AA" transform="translate(337,288)"/>
<path d="M0 0 C-0.33 0.99 -0.66 1.98 -1 3 C-4.0625 4.1875 -4.0625 4.1875 -7 5 C-7.33 4.01 -7.66 3.02 -8 2 C-5.09399739 0.74335022 -3.20395416 0 0 0 Z " fill="#8446AD" transform="translate(276,88)"/>
<path d="M0 0 C0 2 0 2 -1.875 4.125 C-4 6 -4 6 -6 6 C-6 4.35 -6 2.7 -6 1 C-3 0 -3 0 0 0 Z " fill="#9046B7" transform="translate(315,75)"/>
<path d="M0 0 C2.97 0.495 2.97 0.495 6 1 C6 1.99 6 2.98 6 4 C3.69 3.34 1.38 2.68 -1 2 C-0.67 1.34 -0.34 0.68 0 0 Z " fill="#DD55B0" transform="translate(368,280)"/>
</svg>
