<?xml version="1.0" encoding="UTF-8"?>
<svg version="1.1" xmlns="http://www.w3.org/2000/svg" width="740" height="740">
<path d="M0 0 C244.2 0 488.4 0 740 0 C740 244.2 740 488.4 740 740 C495.8 740 251.6 740 0 740 C0 495.8 0 251.6 0 0 Z " fill="#FEFEFE" transform="translate(0,0)"/>
<path d="M0 0 C15.01699259 1.46507245 28.97835887 16.02338887 38.375 26.9375 C53.51397873 46.06173969 63.99741043 68.12204829 69 92 C69.15243164 92.70882324 69.30486328 93.41764648 69.46191406 94.14794922 C78.81097493 139.46969245 71.21646276 200.21804269 49.01464844 241.10302734 C47.79896358 243.37585491 46.65515455 245.68021581 45.5078125 247.98828125 C25.89683497 287.02656001 -3.35799572 315.58232154 -44 332 C-45.71123047 332.69609375 -45.71123047 332.69609375 -47.45703125 333.40625 C-57.05809236 337.07231292 -66.90841876 339.20039863 -77 341 C-78.45696289 341.26925293 -78.45696289 341.26925293 -79.94335938 341.54394531 C-88.43199923 342.99862026 -96.77316268 343.40056535 -105.375 343.375 C-106.41714661 343.37418427 -106.41714661 343.37418427 -107.48034668 343.37335205 C-133.18415481 343.281537 -157.91105081 337.27560353 -181 326 C-181.69722168 325.66097656 -182.39444336 325.32195312 -183.11279297 324.97265625 C-222.15188226 305.73932194 -252.75499654 271.59070473 -267.03637695 230.32006836 C-268.07173341 227.22719814 -269.04006911 224.11719494 -270 221 C-270.28746094 220.10023438 -270.57492187 219.20046875 -270.87109375 218.2734375 C-273.52336615 209.39588326 -274.74695752 200.16238668 -276 191 C-276.14791992 189.92951416 -276.14791992 189.92951416 -276.29882812 188.83740234 C-278.24281047 173.33099639 -278.13011531 157.11917213 -274 142 C-272.09647573 145.14495314 -271.46859517 148.30089678 -270.80957031 151.88745117 C-265.73378362 179.48205106 -254.79635893 205.40673468 -236.62890625 226.9140625 C-235.09686764 228.87595367 -234.01880931 230.73711701 -233 233 C-232.34 233 -231.68 233 -231 233 C-229.73046875 234.36328125 -229.73046875 234.36328125 -228.1875 236.3125 C-204.83324687 263.75374743 -166.15415642 280.19670662 -131 284 C-126.05819834 284.25787997 -121.13514226 284.2867313 -116.1875 284.25 C-115.53047089 284.24689819 -114.87344177 284.24379639 -114.19650269 284.24060059 C-83.09035466 284.06862595 -45.20512406 275.39216689 -21.44140625 253.66015625 C-12.03321071 243.88119438 -7.5544877 232.0040579 -7.56396484 218.47070312 C-7.81165585 209.13042332 -11.10689988 200.72988494 -14.52734375 192.140625 C-25.84248799 163.66945044 -27.66386983 129.00344164 -16.51953125 100.08203125 C-14.1987744 95.37489203 -11.30677443 91.08325896 -7 88 C-4.390625 87.65625 -4.390625 87.65625 -2 88 C0.24432982 89.87027485 1.69443202 91.38886404 3 94 C3.0983216 95.56623288 3.13551628 97.13650736 3.1418457 98.70581055 C3.14888016 99.68410324 3.15591461 100.66239594 3.16316223 101.67033386 C3.16732651 102.73174088 3.17149078 103.79314789 3.17578125 104.88671875 C3.1989864 107.12696245 3.22310401 109.36719685 3.24804688 111.60742188 C3.28311936 115.14483801 3.31247876 118.68191384 3.32592773 122.21948242 C3.34143684 125.62981645 3.38167587 129.0391501 3.42578125 132.44921875 C3.42291862 134.02614754 3.42291862 134.02614754 3.41999817 135.63493347 C3.52462302 141.94159185 4.22950571 145.87323816 8 151 C11.22500073 152.61250037 14.50325101 152.4452789 18 152 C24.38344039 149.06361742 28.20815435 143.56562272 30.73242188 137.13378906 C40.74962584 108.88744563 37.79842384 74.49279494 25.12792969 47.39306641 C19.75111466 36.57399312 13.02429434 27.57382734 4.19921875 19.2890625 C1.12968281 16.09412812 -0.81533696 13.60920651 -1.328125 9.140625 C-1.30234375 8.18671875 -1.2765625 7.2328125 -1.25 6.25 C-1.23453125 5.28578125 -1.2190625 4.3215625 -1.203125 3.328125 C-1 1 -1 1 0 0 Z " fill="#1E429A" transform="translate(474,152)"/>
<path d="M0 0 C6.00706386 4.51373478 11.12653867 9.54423112 15 16 C15 16.99 15 17.98 15 19 C15.66 19 16.32 19 17 19 C17.37125 17.6696875 17.37125 17.6696875 17.75 16.3125 C21.14835508 7.30685904 29.50923108 0.99565596 38 -3 C46.2712643 -6.38582915 56.70663072 -6.40155404 65.3046875 -4.125 C68.0536132 -2.94132661 70.48415778 -1.61820948 73 0 C73.79792969 0.49628906 74.59585938 0.99257813 75.41796875 1.50390625 C82.76752319 6.61289301 88.36325756 14.41210522 91 23 C93.25923964 41.82935776 86.96227935 58.025144 75.59521484 72.82958984 C72.68041303 76.44113371 69.62288904 79.91454361 66.50097656 83.34765625 C65.05625131 84.93807599 63.63180437 86.54452041 62.2109375 88.15625 C52.36549951 99.23082027 41.46287824 108.75926797 29.6796875 117.70996094 C28.04784028 118.96325755 26.44456509 120.24648517 24.84375 121.5390625 C23.8846875 122.28929687 22.925625 123.03953125 21.9375 123.8125 C21.10089844 124.47894531 20.26429688 125.14539063 19.40234375 125.83203125 C17 127 17 127 14.56640625 126.4765625 C1.1332638 118.7479052 -10.94790734 107.00285992 -22.21899414 96.43969727 C-24.89464511 93.92388226 -24.89464511 93.92388226 -28 92 C-28 91.34 -28 90.68 -28 90 C-28.66 90 -29.32 90 -30 90 C-30 89.34 -30 88.68 -30 88 C-30.66 88 -31.32 88 -32 88 C-33.02099319 86.34611044 -34.01634696 84.67636645 -35 83 C-36.51693432 81.18734564 -38.06116302 79.39734857 -39.625 77.625 C-51.49349306 63.69118327 -60.33152501 47.67022662 -59.42578125 28.93359375 C-58.86009021 23.70743889 -57.57148445 19.56259915 -55 15 C-54.4225 13.96875 -53.845 12.9375 -53.25 11.875 C-40.38012413 -4.56984139 -18.8342375 -11.66315569 0 0 Z " fill="#4996D0" transform="translate(354,270)"/>
<path d="M0 0 C1.12792969 0.40992188 2.25585938 0.81984375 3.41796875 1.2421875 C16.38896325 6.06684664 27.46364976 13.01414946 38 22 C38.77085937 22.63679688 39.54171875 23.27359375 40.3359375 23.9296875 C47.80452867 30.27671549 53.77605171 37.72874854 59 46 C55.66917998 44.48459228 52.96362605 42.53306114 50.0625 40.3125 C27.53736822 23.78607175 -0.6812427 17.4723013 -28.29199219 21.47753906 C-55.37714006 26.35174148 -81.1062451 40.28536721 -97.375 63 C-101.36191663 68.76545521 -104.9397601 74.68716227 -108 81 C-108.51304687 82.05445313 -109.02609375 83.10890625 -109.5546875 84.1953125 C-120.23697973 107.52628907 -121.3061494 133.43947565 -114 158 C-113.78472656 158.83402344 -113.56945312 159.66804687 -113.34765625 160.52734375 C-108.24008806 178.45390663 -96.16285538 196.19357167 -82 208 C-81.17628906 208.68835938 -80.35257812 209.37671875 -79.50390625 210.0859375 C-74.85891783 213.88959621 -70.32510708 217.22168326 -65 220 C-71.693778 222.23125933 -81.15650273 217.32264448 -87.4296875 214.3828125 C-116.87343287 198.54225648 -138.6017648 175.2458032 -148.78125 143.12890625 C-149.19298425 141.75423487 -149.59951808 140.37799155 -150 139 C-150.51046875 137.25009766 -150.51046875 137.25009766 -151.03125 135.46484375 C-155.36557035 117.02391595 -155.37370377 93.88816533 -149 76 C-148.63777344 74.8346875 -148.27554688 73.669375 -147.90234375 72.46875 C-138.16677462 42.63500594 -116.74934924 19.09883894 -88.98925781 4.97705078 C-78.6386718 -0.10677902 -68.35829741 -3.15344639 -57 -5 C-56.05890381 -5.17200928 -55.11780762 -5.34401855 -54.14819336 -5.52124023 C-36.36593599 -8.2254672 -16.77633405 -6.5348077 0 0 Z " fill="#2D9AD4" transform="translate(377,186)"/>
<path d="M0 0 C6.00706386 4.51373478 11.12653867 9.54423112 15 16 C15 16.99 15 17.98 15 19 C15.66 19 16.32 19 17 19 C17.37125 17.6696875 17.37125 17.6696875 17.75 16.3125 C21.14835508 7.30685904 29.50923108 0.99565596 38 -3 C46.2712643 -6.38582915 56.70663072 -6.40155404 65.3046875 -4.125 C68.0536132 -2.94132661 70.48415778 -1.61820948 73 0 C73.79792969 0.49628906 74.59585938 0.99257813 75.41796875 1.50390625 C82.76752319 6.61289301 88.36325756 14.41210522 91 23 C93.26900055 41.91070885 86.89696709 58.12247911 75.48242188 72.97460938 C66.23516381 84.46844057 66.23516381 84.46844057 61 88 C61 87.01 61 86.02 61 85 C61.66 85 62.32 85 63 85 C63.25910156 84.27296875 63.51820313 83.5459375 63.78515625 82.796875 C65.04043973 79.90689761 66.53559401 77.75315369 68.4375 75.25 C75.25034349 65.55589145 76.45959304 55.65933365 75 44 C72.90782903 36.13667141 67.627852 30.52659293 61 26 C55.74362812 23.28075385 51.48618331 22.45016961 45.6875 22.5 C44.57036621 22.50531738 44.57036621 22.50531738 43.43066406 22.51074219 C37.02674242 22.70277634 32.29684015 24.33377664 27 28 C26.071875 28.5775 25.14375 29.155 24.1875 29.75 C20.98230212 33.04677497 19.0520532 36.91335788 17 41 C16.34 41 15.68 41 15 41 C14.505 39.824375 14.01 38.64875 13.5 37.4375 C9.83677896 30.25097261 4.58666439 26.29420299 -2.9375 23.5625 C-12.51356947 20.79047989 -20.02978363 21.43733951 -29 26 C-36.20499434 30.74012786 -40.75728658 36.64079544 -43 45 C-44.59557009 56.22173677 -42.11216322 67.79212272 -35.3125 77 C-34.549375 77.99 -33.78625 78.98 -33 80 C-31.6875 83.4375 -31.6875 83.4375 -31 86 C-43.82052224 75.87364547 -55.89778627 58.22845556 -59 42 C-60.03728297 32.44912447 -59.8130145 23.53975836 -55 15 C-54.4225 13.96875 -53.845 12.9375 -53.25 11.875 C-40.38012413 -4.56984139 -18.8342375 -11.66315569 0 0 Z " fill="#1F4299" transform="translate(354,270)"/>
<path d="M0 0 C6.35468497 2.81381296 10.23682893 8.35524339 14 14 C16.15237783 21.5333224 15.45238883 29.02228454 12 36 C8.42080244 41.18802879 4.90185815 44.59313721 -1 47 C-7.31768333 47.87949188 -13.92491772 48.20385811 -19.5625 44.875 C-24.4696855 41.15520628 -28.06144705 36.9172424 -30 31 C-31.0272851 22.1437211 -30.56248539 14.23521369 -25 7 C-17.33397073 -0.16766408 -10.24981501 -1.12123879 0 0 Z " fill="#F8FAFA" transform="translate(237,521)"/>
<path d="M0 0 C5.45255683 3.17277874 10.5148856 8.07981304 12.52734375 14.1171875 C13.73165334 31.86594683 13.73165334 31.86594683 8.52734375 38.1171875 C4.48508693 42.28136854 0.46740852 45.82125941 -5.4609375 46.41796875 C-18.94316101 46.46549715 -18.94316101 46.46549715 -24.375 41.3125 C-30.83792647 34.30769217 -31.88080918 28.96940686 -31.72265625 19.5 C-31.21052921 12.57028095 -28.34560014 8.10088012 -23.47265625 3.1171875 C-16.91432706 -2.18529142 -7.93453246 -2.83286625 0 0 Z " fill="#F9FAFB" transform="translate(339.47265625,521.8828125)"/>
<path d="M0 0 C11.34052457 1.42250482 22.57230244 10.75068708 30 19 C31.59270609 22.09835838 32.76755079 25.36865748 34 28.625 C34.53282593 30.02613037 34.53282593 30.02613037 35.07641602 31.45556641 C38.15905043 39.86899171 39.85715563 48.14059487 41 57 C41.18304688 58.11375 41.36609375 59.2275 41.5546875 60.375 C43.43416798 75.67463056 42.39585389 91.52930094 37 106 C36.67 106 36.34 106 36 106 C35.970271 105.09459473 35.970271 105.09459473 35.93994141 104.17089844 C34.95849454 75.72520641 30.05615118 44.85695796 8.7578125 23.78125 C7.44145548 22.64330034 6.10143358 21.53135897 4.7265625 20.46484375 C1.55208045 17.77156146 -0.3604922 15.14120294 -1 11 C-1.09021304 9.27268559 -1.13010978 7.54216105 -1.125 5.8125 C-1.12757813 4.93207031 -1.13015625 4.05164063 -1.1328125 3.14453125 C-1 1 -1 1 0 0 Z " fill="#224299" transform="translate(463,180)"/>
<path d="M0 0 C4.29 0 8.58 0 13 0 C13.80824219 1.68867187 14.61648438 3.37734375 15.44921875 5.1171875 C16.52860171 7.36981281 17.60803127 9.62241579 18.6875 11.875 C19.48317383 13.53789063 19.48317383 13.53789063 20.29492188 15.234375 C23.46870366 21.85453333 26.69003878 28.44681438 30 35 C30.27150879 34.36610352 30.54301758 33.73220703 30.82275391 33.07910156 C40.41313404 10.73266356 40.41313404 10.73266356 46 0 C50.29 0 54.58 0 59 0 C59 0.66 59 1.32 59 2 C57.35 2.33 55.7 2.66 54 3 C54 16.53 54 30.06 54 44 C55.65 44.33 57.3 44.66 59 45 C59 45.66 59 46.32 59 47 C52.73 47 46.46 47 40 47 C40 46.34 40 45.68 40 45 C42.475 44.505 42.475 44.505 45 44 C45 33.11 45 22.22 45 11 C43.1025 15.104375 41.205 19.20875 39.25 23.4375 C38.65993164 24.71294678 38.06986328 25.98839355 37.46191406 27.30249023 C34.59259594 33.51434118 31.75912196 39.73840041 29 46 C26 45 26 45 24.421875 41.89453125 C23.8550378 40.53780294 23.29838661 39.17679038 22.75 37.8125 C19.92286329 31.04857351 16.82865272 24.50842898 13.48046875 17.98828125 C12.19106114 15.38565112 11.07871287 12.69678218 10 10 C10 20.89 10 31.78 10 43 C11.98 43.66 13.96 44.32 16 45 C16 45.66 16 46.32 16 47 C10.72 47 5.44 47 0 47 C0 46.34 0 45.68 0 45 C2.475 44.505 2.475 44.505 5 44 C5.33 30.47 5.66 16.94 6 3 C3.03 2.505 3.03 2.505 0 2 C0 1.34 0 0.68 0 0 Z " fill="#369ED5" transform="translate(475,521)"/>
<path d="M0 0 C0.99 0.33 1.98 0.66 3 1 C4.2109375 3.58984375 4.2109375 3.58984375 5.375 6.9375 C7.24562164 12.08734392 9.36812175 16.88824258 11.88671875 21.74609375 C12.88610058 23.76940363 13.69088996 25.74868954 14.4375 27.875 C15.74448096 31.49147572 17.2953536 34.96025501 18.9375 38.4375 C19.42089844 39.46746094 19.90429688 40.49742187 20.40234375 41.55859375 C21.760897 44.15224699 21.760897 44.15224699 24.19140625 44.84765625 C24.78824219 44.89792969 25.38507813 44.94820312 26 45 C26 45.66 26 46.32 26 47 C20.06 47 14.12 47 8 47 C8 46.34 8 45.68 8 45 C9.32 45 10.64 45 12 45 C11.80083984 44.11248047 11.80083984 44.11248047 11.59765625 43.20703125 C11.42105469 42.41683594 11.24445313 41.62664063 11.0625 40.8125 C10.88847656 40.03519531 10.71445312 39.25789062 10.53515625 38.45703125 C9.99506959 35.97736332 9.49770422 33.48852108 9 31 C2.73 31 -3.54 31 -10 31 C-13.21081851 39.0513167 -13.21081851 39.0513167 -13 44 C-11.68 44.33 -10.36 44.66 -9 45 C-9 45.66 -9 46.32 -9 47 C-13.62 47 -18.24 47 -23 47 C-23 46.34 -23 45.68 -23 45 C-21.85229126 44.37895386 -21.85229126 44.37895386 -20.68139648 43.74536133 C-17.31711414 41.55549931 -16.61087195 39.761726 -15.09765625 36.07421875 C-14.59943359 34.88376953 -14.10121094 33.69332031 -13.58789062 32.46679688 C-13.07894508 31.2072259 -12.57048268 29.9474596 -12.0625 28.6875 C-10.54882812 25.03710938 -10.54882812 25.03710938 -9.03515625 21.38671875 C-8.54160645 20.18063965 -8.04805664 18.97456055 -7.53955078 17.73193359 C-5.10048485 11.78992242 -2.54608187 5.89675502 0 0 Z " fill="#369ED3" transform="translate(447,521)"/>
<path d="M0 0 C4.59125558 -0.91971097 8.42943078 -1.12145919 13 0 C16.92803619 3.57141875 19.69168347 7.64731344 22.63085938 12.04101562 C24.83185172 15.19022436 27.34705183 18.04908991 29.875 20.9375 C33.53438533 25.14385164 36.73778724 29.43290214 40 34 C40 24.1 40 14.2 40 4 C38.02 3.34 36.04 2.68 34 2 C34 1.34 34 0.68 34 0 C39.28 0 44.56 0 50 0 C50 0.66 50 1.32 50 2 C48.35 2.33 46.7 2.66 45 3 C44.67 17.52 44.34 32.04 44 47 C39.867183 44.9335915 38.43955946 43.42035736 35.625 39.875 C34.449375 38.40160156 34.449375 38.40160156 33.25 36.8984375 C30.88363408 33.85009807 28.55331828 30.7811878 26.2890625 27.65625 C25.01675392 25.93889302 25.01675392 25.93889302 23.3359375 24.40625 C22 23 22 23 22 21 C21.34 21 20.68 21 20 21 C18.52734375 19.28515625 18.52734375 19.28515625 16.9375 17.0625 C15.10094469 14.41985962 15.10094469 14.41985962 13 12 C13 22.23 13 32.46 13 43 C14.98 43.66 16.96 44.32 19 45 C19 45.66 19 46.32 19 47 C13.72 47 8.44 47 3 47 C3 46.34 3 45.68 3 45 C4.65 45 6.3 45 8 45 C8.07411371 39.50076251 8.12858464 34.00181521 8.16479492 28.50219727 C8.17988873 26.63105201 8.20036589 24.75994217 8.22631836 22.88891602 C8.26267593 20.20059474 8.27972015 17.51274087 8.29296875 14.82421875 C8.30845261 13.98662521 8.32393646 13.14903168 8.33988953 12.28605652 C8.48184616 7.99919675 8.48184616 7.99919675 6.64668274 4.29792786 C4.51952757 2.62128798 2.65151747 2.35831317 0 2 C0 1.34 0 0.68 0 0 Z " fill="#329CD6" transform="translate(372,521)"/>
<path d="M0 0 C6.35468497 2.81381296 10.23682893 8.35524339 14 14 C16.15237783 21.5333224 15.45238883 29.02228454 12 36 C8.42080244 41.18802879 4.90185815 44.59313721 -1 47 C-7.31768333 47.87949188 -13.92491772 48.20385811 -19.5625 44.875 C-24.4696855 41.15520628 -28.06144705 36.9172424 -30 31 C-31.0272851 22.1437211 -30.56248539 14.23521369 -25 7 C-17.33397073 -0.16766408 -10.24981501 -1.12123879 0 0 Z M-19.73046875 7.796875 C-23.99168879 15.1917307 -24.01449608 24.0886879 -22.25 32.3125 C-20.39179553 37.79420319 -17.94914129 41.90233602 -13 45 C-8.19170045 45.88072813 -4.07898886 45.4795506 0.375 43.5 C4.73868291 39.34411152 7.15085907 34.59266898 7.49609375 28.52734375 C7.49740039 26.99727173 7.47771702 25.46704395 7.4375 23.9375 C7.44458984 23.17373047 7.45167969 22.40996094 7.45898438 21.62304688 C7.38482599 14.95449688 5.97636855 10.16459413 1.375 5.125 C0.59125 4.42375 -0.1925 3.7225 -1 3 C-1.33 2.67 -1.66 2.34 -2 2 C-9.86475929 0.79671664 -14.93011723 1.11609381 -19.73046875 7.796875 Z " fill="#233F96" transform="translate(237,521)"/>
<path d="M0 0 C5.45255683 3.17277874 10.5148856 8.07981304 12.52734375 14.1171875 C13.73165334 31.86594683 13.73165334 31.86594683 8.52734375 38.1171875 C4.48508693 42.28136854 0.46740852 45.82125941 -5.4609375 46.41796875 C-18.94316101 46.46549715 -18.94316101 46.46549715 -24.375 41.3125 C-30.83792647 34.30769217 -31.88080918 28.96940686 -31.72265625 19.5 C-31.21052921 12.57028095 -28.34560014 8.10088012 -23.47265625 3.1171875 C-16.91432706 -2.18529142 -7.93453246 -2.83286625 0 0 Z M-21.16796875 6.91796875 C-25.38998746 14.03472484 -25.53449624 22.67525753 -23.97265625 30.6796875 C-22.44581733 35.81541842 -20.20387344 39.29029807 -16.47265625 43.1171875 C-12.76029211 44.97336957 -8.52422537 44.56528731 -4.47265625 44.1171875 C0.00769819 41.91774077 2.39046989 39.61586932 4.52734375 35.1171875 C7.17737293 27.1858945 6.90242755 15.79173812 3.33984375 8.2421875 C1.18410512 4.7309013 -0.41049626 2.35349706 -4.47265625 1.1171875 C-12.08869302 -0.21916678 -16.50721782 0.52894894 -21.16796875 6.91796875 Z " fill="#203E99" transform="translate(339.47265625,521.8828125)"/>
<path d="M0 0 C0.66 0 1.32 0 2 0 C2 4.62 2 9.24 2 14 C0.68 12.35 -0.64 10.7 -2 9 C-5.61889748 5.07557828 -5.61889748 5.07557828 -10.609375 3.76171875 C-19.04459606 3.53486584 -19.04459606 3.53486584 -26 8 C-30.862205 14.70648966 -30.53717878 21.98068825 -30 30 C-28.89584284 35.09860805 -26.64182357 39.24781814 -23 43 C-19.61956772 45.17043415 -16.84422271 45.24113814 -12.875 45.1875 C-11.29332031 45.17783203 -11.29332031 45.17783203 -9.6796875 45.16796875 C-7.02830021 45.17680958 -7.02830021 45.17680958 -5 44 C-4.94208156 40.87507749 -4.90643254 37.75029234 -4.875 34.625 C-4.85824219 33.73554687 -4.84148437 32.84609375 -4.82421875 31.9296875 C-4.81777344 31.07890625 -4.81132812 30.228125 -4.8046875 29.3515625 C-4.79421387 28.56604004 -4.78374023 27.78051758 -4.77294922 26.97119141 C-4.82009873 24.765535 -4.82009873 24.765535 -7 23 C-2.71 23 1.58 23 6 23 C5.34 23.66 4.68 24.32 4 25 C3.63047951 27.12860662 3.63047951 27.12860662 3.5859375 29.5703125 C3.54726563 30.46621094 3.50859375 31.36210938 3.46875 32.28515625 C3.42234375 33.69087891 3.42234375 33.69087891 3.375 35.125 C3.33632813 36.06988281 3.29765625 37.01476562 3.2578125 37.98828125 C3.16338654 40.32532375 3.07781606 42.66235501 3 45 C-2.54801779 47.34057001 -6.99233207 48.50392304 -13 48.375 C-13.70060547 48.36267334 -14.40121094 48.35034668 -15.12304688 48.33764648 C-23.40355603 48.06851064 -27.63240705 46.74804638 -33.375 40.75 C-36.49902388 36.95216705 -38.29200358 33.95597492 -39 29 C-39.103125 28.33613281 -39.20625 27.67226563 -39.3125 26.98828125 C-39.93227601 19.79629709 -36.94876822 13.86483719 -33 8 C-28.40135695 3.34849898 -24.31349973 1.17354505 -17.79296875 0.83203125 C-5.86059554 0.76739218 -5.86059554 0.76739218 0 3 C0 2.01 0 1.02 0 0 Z " fill="#24408E" transform="translate(296,520)"/>
<path d="M0 0 C11.88 0 23.76 0 36 0 C36 3.3 36 6.6 36 10 C35.34 9.01 34.68 8.02 34 7 C32.37526378 5.02308698 31.53290109 4.11561532 29.00708008 3.56762695 C27.89949341 3.52835083 27.89949341 3.52835083 26.76953125 3.48828125 C26.04612549 3.45516846 25.32271973 3.42205566 24.57739258 3.38793945 C23.66497803 3.36304443 22.75256348 3.33814941 21.8125 3.3125 C18.904375 3.209375 15.99625 3.10625 13 3 C13 8.94 13 14.88 13 21 C16.58875 20.9071875 16.58875 20.9071875 20.25 20.8125 C21.37003418 20.80246948 21.37003418 20.80246948 22.51269531 20.79223633 C24.65321993 20.73508644 24.65321993 20.73508644 28 20 C29.32 18.35 30.64 16.7 32 15 C32 19.95 32 24.9 32 30 C30 27 30 27 30 25 C24.72 24.67 19.44 24.34 14 24 C14 30.6 14 37.2 14 44 C16.701875 43.9175 19.40375 43.835 22.1875 43.75 C23.45049927 43.72631348 23.45049927 43.72631348 24.73901367 43.70214844 C29.69055127 43.47849644 32.40884488 42.7016522 36 39 C37.31165257 36.88339573 37.31165257 36.88339573 38 35 C38.99 35.495 38.99 35.495 40 36 C38.68 39.63 37.36 43.26 36 47 C24.12 47 12.24 47 0 47 C0 46.34 0 45.68 0 45 C1.98 44.34 3.96 43.68 6 43 C6.33 29.8 6.66 16.6 7 3 C4.69 2.67 2.38 2.34 0 2 C0 1.34 0 0.68 0 0 Z " fill="#35A1DC" transform="translate(537,521)"/>
<path d="M0 0 C6.93 0 13.86 0 21 0 C21 0.66 21 1.32 21 2 C18.69 2.66 16.38 3.32 14 4 C13.97535151 9.39346988 13.95716469 14.78690725 13.94506836 20.18041992 C13.94002769 22.01668875 13.93319523 23.85295354 13.92456055 25.68920898 C13.91248328 28.32276401 13.90676919 30.95626616 13.90234375 33.58984375 C13.89718246 34.41588608 13.89202118 35.24192841 13.88670349 36.09300232 C13.88650795 38.06236368 13.93795848 40.03161614 14 42 C16.04128347 44.04128347 19.96352323 43.32103654 22.75 43.375 C23.46671875 43.41238281 24.1834375 43.44976563 24.921875 43.48828125 C28.98242406 43.55545945 30.74323393 43.20821643 33.93359375 40.62109375 C35.65399226 38.43888694 36.95661573 36.56103412 38 34 C38.66 34 39.32 34 40 34 C39.30460534 38.58960475 37.949627 41.45087033 36 46 C25.44 46 14.88 46 4 46 C4.66 45.01 5.32 44.02 6 43 C6.17222348 40.02608939 6.23194201 37.14797082 6.1953125 34.17578125 C6.1924826 33.31438034 6.18965271 32.45297943 6.18673706 31.56547546 C6.17554237 28.81434231 6.15043921 26.06353475 6.125 23.3125 C6.11496927 21.44727033 6.10584359 19.58203555 6.09765625 17.71679688 C6.07560538 13.1444058 6.04108049 8.57225811 6 4 C4.02 3.34 2.04 2.68 0 2 C0 1.34 0 0.68 0 0 Z " fill="#173EAE" transform="translate(163,521)"/>
<path d="M0 0 C5.14319835 2.2773746 8.8763254 6.37696159 12 11 C13.2077558 14.62326739 12.54311128 15.64146369 11 19 C9.68 19 8.36 19 7 19 C6.84144531 18.33613281 6.68289062 17.67226563 6.51953125 16.98828125 C4.99187308 11.20681249 3.65514588 7.79761901 -1 4 C-1.33 3.67 -1.66 3.34 -2 3 C-9.31418062 1.9969571 -9.31418062 1.9969571 -16.05859375 4.31640625 C-21.82640043 10.74585659 -22.23199105 18.13167586 -22.4609375 26.42578125 C-23 29 -23 29 -25.0390625 30.35546875 C-26.00972656 30.67451172 -26.00972656 30.67451172 -27 31 C-27.33 29.02 -27.66 27.04 -28 25 C-28.66 25.99 -29.32 26.98 -30 28 C-30.69265052 19.90368498 -29.88784638 13.67266856 -25 7 C-17.36199449 -0.18527478 -10.22837467 -1.11889341 0 0 Z " fill="#1B3992" transform="translate(237,521)"/>
<path d="M0 0 C0.33 0 0.66 0 1 0 C1.33 12.87 1.66 25.74 2 39 C3.65 39.33 5.3 39.66 7 40 C7 40.66 7 41.32 7 42 C0.73 42 -5.54 42 -12 42 C-12 41.34 -12 40.68 -12 40 C-9.525 39.505 -9.525 39.505 -7 39 C-7 27.45 -7 15.9 -7 4 C-6.34 4 -5.68 4 -5 4 C-4.67 13.9 -4.34 23.8 -4 34 C-2.19605125 32.19605125 -2.76294211 29.43322201 -2.68359375 26.99609375 C-2.62075195 25.17368164 -2.62075195 25.17368164 -2.55664062 23.31445312 C-2.51732422 22.03505859 -2.47800781 20.75566406 -2.4375 19.4375 C-2.39431641 18.15423828 -2.35113281 16.87097656 -2.30664062 15.54882812 C-2.200152 12.36600147 -2.09814038 9.18309326 -2 6 C-1.67 6 -1.34 6 -1 6 C-0.67 4.02 -0.34 2.04 0 0 Z " fill="#56A9DA" transform="translate(527,526)"/>
<path d="M0 0 C5.28 0 10.56 0 16 0 C16 0.66 16 1.32 16 2 C14.35 2.33 12.7 2.66 11 3 C10.67 17.52 10.34 32.04 10 47 C9.01 46.67 8.02 46.34 7 46 C6.505 25.21 6.505 25.21 6 4 C4.02 3.34 2.04 2.68 0 2 C0 1.34 0 0.68 0 0 Z " fill="#4CA1D4" transform="translate(406,521)"/>
<path d="M0 0 C3 1 3 1 4.421875 3.765625 C4.86015625 4.91546875 5.2984375 6.0653125 5.75 7.25 C6.42289062 8.95929687 6.42289062 8.95929687 7.109375 10.703125 C8.00924999 14.0342412 8.00215347 15.74911191 7 19 C6.34 19 5.68 19 5 19 C5 17.68 5 16.36 5 15 C4.34 15 3.68 15 3 15 C2.67 15.66 2.34 16.32 2 17 C1.34 15.35 0.68 13.7 0 12 C-2.75307198 14.75307198 -3.74908236 18.0568308 -5.125 21.625 C-5.40214844 22.33140625 -5.67929687 23.0378125 -5.96484375 23.765625 C-6.64789908 25.50859377 -7.32456494 27.25406409 -8 29 C-8.33 28.34 -8.66 27.68 -9 27 C-9.66 26.67 -10.32 26.34 -11 26 C-10.73783691 25.39003174 -10.47567383 24.78006348 -10.20556641 24.15161133 C-9.01140244 21.37218281 -7.81819249 18.5923457 -6.625 15.8125 C-6.2125 14.85279297 -5.8 13.89308594 -5.375 12.90429688 C-4.97539062 11.97294922 -4.57578125 11.04160156 -4.1640625 10.08203125 C-3.79748535 9.22843018 -3.4309082 8.3748291 -3.05322266 7.49536133 C-2.00372847 5.00883373 -0.9942031 2.50908569 0 0 Z " fill="#369BCF" transform="translate(447,521)"/>
<path d="M0 0 C3.22334883 2.63728541 4.25743292 5.71892631 5.6875 9.5625 C6.34298828 11.29693359 6.34298828 11.29693359 7.01171875 13.06640625 C8 16 8 16 8 18 C3.05 18 -1.9 18 -7 18 C-6.16546516 13.8273258 -5.14069206 10.62279637 -3.5 6.75 C-3.0565625 5.69296875 -2.613125 4.6359375 -2.15625 3.546875 C-1 1 -1 1 0 0 Z " fill="#EFF2F4" transform="translate(446,532)"/>
<path d="M0 0 C0 11.88 0 23.76 0 36 C-0.66 35.01 -1.32 34.02 -2 33 C-2.99 33.66 -3.98 34.32 -5 35 C-5.07417023 30.49767666 -5.1286105 25.99570909 -5.16479492 21.49291992 C-5.17987936 19.96128139 -5.20034978 18.42968602 -5.22631836 16.89819336 C-5.26271847 14.69634346 -5.27972913 12.49506467 -5.29296875 10.29296875 C-5.30845261 9.60849167 -5.32393646 8.92401459 -5.33988953 8.21879578 C-5.34091573 5.31835944 -5.31821935 3.44668919 -3.60668945 1.04418945 C-2 0 -2 0 0 0 Z " fill="#2597D6" transform="translate(527,526)"/>
<path d="M0 0 C0.66 0 1.32 0 2 0 C2 0.66 2 1.32 2 2 C2.99 1.67 3.98 1.34 5 1 C5.38671875 1.85464844 5.7734375 2.70929687 6.171875 3.58984375 C6.69265625 4.69457031 7.2134375 5.79929687 7.75 6.9375 C8.26046875 8.03964844 8.7709375 9.14179687 9.296875 10.27734375 C10.71250963 13.13682799 10.71250963 13.13682799 13.203125 13.87890625 C14.09257812 13.93884766 14.09257812 13.93884766 15 14 C15 14.66 15 15.32 15 16 C9.06 16 3.12 16 -3 16 C-3 15.34 -3 14.68 -3 14 C-1.68 14 -0.36 14 1 14 C0.76603516 12.73542969 0.76603516 12.73542969 0.52734375 11.4453125 C0.33269531 10.34960938 0.13804687 9.25390625 -0.0625 8.125 C-0.25972656 7.03445313 -0.45695312 5.94390625 -0.66015625 4.8203125 C-1 2 -1 2 0 0 Z " fill="#46A2D6" transform="translate(458,552)"/>
<path d="M0 0 C11.88 0 23.76 0 36 0 C36 3.3 36 6.6 36 10 C35.34 9.01 34.68 8.02 34 7 C32.34360159 4.96410412 31.51250195 4.10629359 28.9152832 3.56762695 C27.74485474 3.52835083 27.74485474 3.52835083 26.55078125 3.48828125 C25.70322266 3.45283203 24.85566406 3.41738281 23.98242188 3.38085938 C22.66081055 3.34702148 22.66081055 3.34702148 21.3125 3.3125 C20.41982422 3.27833984 19.52714844 3.24417969 18.60742188 3.20898438 C16.40507329 3.12654352 14.20312062 3.05738449 12 3 C12 3.66 12 4.32 12 5 C10.35 5 8.7 5 7 5 C7 4.34 7 3.68 7 3 C4.69 2.67 2.38 2.34 0 2 C0 1.34 0 0.68 0 0 Z " fill="#5EA9D8" transform="translate(537,521)"/>
<path d="M0 0 C1.65 0 3.3 0 5 0 C5 13.2 5 26.4 5 40 C3.68 40 2.36 40 1 40 C0.67 26.8 0.34 13.6 0 0 Z " fill="#15338E" transform="translate(169,524)"/>
<path d="M0 0 C0.66 0 1.32 0 2 0 C3.27159943 3.88959827 3.12651187 7.78563579 3.09765625 11.828125 C3.0962413 12.57713074 3.09482635 13.32613647 3.09336853 14.09783936 C3.08778659 16.48193412 3.07523745 18.86593378 3.0625 21.25 C3.05748266 22.86979031 3.05292016 24.48958209 3.04882812 26.109375 C3.03782308 30.07295312 3.02057091 34.03646045 3 38 C4.98 38.66 6.96 39.32 9 40 C9 40.66 9 41.32 9 42 C3.72 42 -1.56 42 -7 42 C-7 41.34 -7 40.68 -7 40 C-5.02 39.34 -3.04 38.68 -1 38 C-0.67 25.46 -0.34 12.92 0 0 Z " fill="#1DA3E7" transform="translate(482,526)"/>
<path d="M0 0 C2.04986301 4.09972603 2.33871381 6.95943892 2.4140625 11.390625 C2.43342865 12.09523865 2.4527948 12.79985229 2.4727478 13.52581787 C2.53232735 15.76709039 2.57884123 18.00841489 2.625 20.25 C2.66319979 21.77345938 2.70225269 23.29689762 2.7421875 24.8203125 C2.83801018 28.54668106 2.92212107 32.27320835 3 36 C4.98 36.66 6.96 37.32 9 38 C9 38.66 9 39.32 9 40 C3.72 40 -1.56 40 -7 40 C-7 39.34 -7 38.68 -7 38 C-5.35 38 -3.7 38 -2 38 C-2 37.34 -2 36.68 -2 36 C-1.34 36 -0.68 36 0 36 C0 24.12 0 12.24 0 0 Z " fill="#22AAE4" transform="translate(382,528)"/>
<path d="M0 0 C4.29 0 8.58 0 13 0 C13.66 1.65 14.32 3.3 15 5 C14.34 5 13.68 5 13 5 C13 5.66 13 6.32 13 7 C12.34 7 11.68 7 11 7 C10.67 7.99 10.34 8.98 10 10 C9.67 8.35 9.34 6.7 9 5 C8.34 5 7.68 5 7 5 C7 17.54 7 30.08 7 43 C6.67 43 6.34 43 6 43 C6 29.8 6 16.6 6 3 C3.03 2.505 3.03 2.505 0 2 C0 1.34 0 0.68 0 0 Z " fill="#6DA8CD" transform="translate(475,521)"/>
<path d="M0 0 C0.33 0 0.66 0 1 0 C1 5.94 1 11.88 1 18 C0.67 18 0.34 18 0 18 C0 13.05 0 8.1 0 3 C-0.66 3 -1.32 3 -2 3 C-2.33 15.54 -2.66 28.08 -3 41 C-3.66 40.67 -4.32 40.34 -5 40 C-5 27.46 -5 14.92 -5 2 C-3.35 2 -1.7 2 0 2 C0 1.34 0 0.68 0 0 Z " fill="#199BDA" transform="translate(549,524)"/>
<path d="M0 0 C2.10241603 -0.13496251 4.2072961 -0.23197307 6.3125 -0.3125 C7.48425781 -0.37050781 8.65601563 -0.42851563 9.86328125 -0.48828125 C13 0 13 0 14.91796875 2.51953125 C15.27503906 3.33808594 15.63210938 4.15664063 16 5 C15.34 5 14.68 5 14 5 C14 5.66 14 6.32 14 7 C13.01 6.67 12.02 6.34 11 6 C10.67 18.21 10.34 30.42 10 43 C9.67 43 9.34 43 9 43 C8.98541748 41.89487061 8.97083496 40.78974121 8.95581055 39.65112305 C8.89785734 35.55264861 8.82062481 31.45472533 8.73754883 27.35668945 C8.70428536 25.58269188 8.67625782 23.8085881 8.65356445 22.03442383 C8.62004398 19.48472824 8.56773135 16.93600708 8.51171875 14.38671875 C8.50532883 13.59287277 8.4989389 12.79902679 8.49235535 11.98112488 C8.41344508 7.7530809 8.41344508 7.7530809 6.63598633 4.01879883 C4.48848352 2.68145676 2.4882519 2.33625026 0 2 C0 1.34 0 0.68 0 0 Z " fill="#63A2CC" transform="translate(372,521)"/>
<path d="M0 0 C1.74028734 3.10765596 2.51314066 5.9363049 3.125 9.4375 C3.29257813 10.36433594 3.46015625 11.29117187 3.6328125 12.24609375 C3.98273843 14.87053825 4.06716891 17.35642353 4 20 C2.0625 19.625 2.0625 19.625 0 19 C-0.33 18.34 -0.66 17.68 -1 17 C-1.33 24.59 -1.66 32.18 -2 40 C-2.33 40 -2.66 40 -3 40 C-3.61916858 13.24874212 -3.61916858 13.24874212 0 0 Z " fill="#506598" transform="translate(200,294)"/>
<path d="M0 0 C0.33 0 0.66 0 1 0 C1 4.95 1 9.9 1 15 C-1 12 -1 12 -1 10 C-6.28 9.67 -11.56 9.34 -17 9 C-17 15.27 -17 21.54 -17 28 C-17.33 28 -17.66 28 -18 28 C-18.02888146 24.68751813 -18.04675799 21.37506833 -18.0625 18.0625 C-18.07087891 17.11697266 -18.07925781 16.17144531 -18.08789062 15.19726562 C-18.09111328 14.29814453 -18.09433594 13.39902344 -18.09765625 12.47265625 C-18.10289307 11.64000244 -18.10812988 10.80734863 -18.11352539 9.94946289 C-18 8 -18 8 -17 7 C-13.44393533 6.58163945 -9.88501732 6.22733223 -6.3203125 5.890625 C-2.82400047 5.32484751 -2.82400047 5.32484751 -1.1171875 2.421875 C-0.56417969 1.22304688 -0.56417969 1.22304688 0 0 Z " fill="#69A6CA" transform="translate(568,536)"/>
<path d="M0 0 C0.33 0 0.66 0 1 0 C1.33 2.31 1.66 4.62 2 7 C2.70125 7.2475 3.4025 7.495 4.125 7.75 C7 9 7 9 9.75 11 C13.73470369 13.45212534 17.43412286 14.22887408 22 15 C22 15.33 22 15.66 22 16 C13.36987763 16.42833328 6.85758298 16.13428617 0 10.5625 C-2 8 -2 8 -2 4 C-1.34 4 -0.68 4 0 4 C0 2.68 0 1.36 0 0 Z " fill="#172B95" transform="translate(264,552)"/>
<path d="M0 0 C0.66 0 1.32 0 2 0 C1.30460534 4.58960475 -0.050373 7.45087033 -2 12 C-12.56 12 -23.12 12 -34 12 C-34 11.67 -34 11.34 -34 11 C-32.81241089 10.94839722 -32.81241089 10.94839722 -31.60083008 10.89575195 C-28.00308975 10.72568654 -24.40829689 10.51949187 -20.8125 10.3125 C-19.56662109 10.25900391 -18.32074219 10.20550781 -17.03710938 10.15039062 C-9.77569162 10.00133068 -9.77569162 10.00133068 -3.71875 6.5625 C-2.27666324 4.41247974 -0.97658985 2.39708418 0 0 Z " fill="#0D2569" transform="translate(201,555)"/>
<path d="M0 0 C0.66 0.66 1.32 1.32 2 2 C1.70145784 4.76151502 1.00118929 6.99713172 -0.0625 9.5625 C-1.23931939 12.18696827 -1.23931939 12.18696827 -1 16 C0.32 16.33 1.64 16.66 3 17 C3 17.66 3 18.32 3 19 C-1.62 19 -6.24 19 -11 19 C-11 18.34 -11 17.68 -11 17 C-9.86498047 16.41798828 -9.86498047 16.41798828 -8.70703125 15.82421875 C-5.18914488 13.45357959 -4.14141341 10.63717459 -2.6875 6.8125 C-2.42388672 6.15830078 -2.16027344 5.50410156 -1.88867188 4.83007812 C-1.24461718 3.22579642 -0.62029417 1.61361748 0 0 Z " fill="#4BA3DA" transform="translate(435,549)"/>
<path d="M0 0 C0.66 0 1.32 0 2 0 C2.04945386 4.35992871 2.08574488 8.71970862 2.10986328 13.07983398 C2.11991821 14.56293583 2.13356404 16.04601788 2.15087891 17.52905273 C2.17515006 19.66134531 2.18648799 21.79337569 2.1953125 23.92578125 C2.20578613 25.20880127 2.21625977 26.49182129 2.22705078 27.8137207 C2 31 2 31 0 34 C-0.85351038 29.66060377 -1.06116614 25.70380214 -0.87890625 21.2890625 C-0.80639648 19.42314453 -0.80639648 19.42314453 -0.73242188 17.51953125 C-0.67634766 16.23433594 -0.62027344 14.94914063 -0.5625 13.625 C-0.51029297 12.31660156 -0.45808594 11.00820312 -0.40429688 9.66015625 C-0.27501407 6.43983922 -0.1400631 3.2198632 0 0 Z " fill="#1C3888" transform="translate(511,240)"/>
<path d="M0 0 C0.66 0 1.32 0 2 0 C2 4.62 2 9.24 2 14 C-2 9 -2 9 -3.625 6.8125 C-7.30934847 4.00076038 -11.48647774 3.654633 -16 3 C-16 2.67 -16 2.34 -16 2 C-10.03654233 0.9993291 -5.71271093 0.9337003 0 3 C0 2.01 0 1.02 0 0 Z " fill="#2C459D" transform="translate(296,520)"/>
<path d="M0 0 C1.32 0.99 2.64 1.98 4 3 C3 5 3 5 1 7 C-0.09796302 9.53157277 -1.13311823 12.05275159 -2.125 14.625 C-2.40214844 15.33140625 -2.67929687 16.0378125 -2.96484375 16.765625 C-3.64789908 18.50859377 -4.32456494 20.25406409 -5 22 C-5.33 21.34 -5.66 20.68 -6 20 C-6.66 19.67 -7.32 19.34 -8 19 C-5.36 12.73 -2.72 6.46 0 0 Z " fill="#45A1D6" transform="translate(444,528)"/>
<path d="M0 0 C3.53191322 3.43153914 6.7137505 6.97375062 9.8125 10.8125 C10.60269531 11.78832031 11.39289063 12.76414063 12.20703125 13.76953125 C13.09455078 14.87361328 13.09455078 14.87361328 14 16 C10.07289862 16 9.04272956 14.67475926 6.0625 12.1875 C3.08523 9.72215878 0.11444634 7.29067167 -3 5 C-2.34 4.67 -1.68 4.34 -1 4 C-0.34786708 1.97536745 -0.34786708 1.97536745 0 0 Z " fill="#3D9DD0" transform="translate(422,215)"/>
<path d="M0 0 C6.93 0 13.86 0 21 0 C21 0.66 21 1.32 21 2 C20.36191406 2.10957031 19.72382813 2.21914063 19.06640625 2.33203125 C18.24011719 2.49058594 17.41382813 2.64914062 16.5625 2.8125 C15.73878906 2.96332031 14.91507813 3.11414063 14.06640625 3.26953125 C13.04353516 3.63111328 13.04353516 3.63111328 12 4 C11.67 4.99 11.34 5.98 11 7 C11 5.68 11 4.36 11 3 C7.37 2.67 3.74 2.34 0 2 C0 1.34 0 0.68 0 0 Z " fill="#5563A1" transform="translate(163,521)"/>
<path d="M0 0 C0.33 0 0.66 0 1 0 C1 11.22 1 22.44 1 34 C-0.485 34.495 -0.485 34.495 -2 35 C-2 34.34 -2 33.68 -2 33 C-1.34 33 -0.68 33 0 33 C-0.11004161 29.41604315 -0.24063297 25.83312083 -0.375 22.25 C-0.4059375 21.23421875 -0.436875 20.2184375 -0.46875 19.171875 C-0.50742187 18.1921875 -0.54609375 17.2125 -0.5859375 16.203125 C-0.6173584 15.30239258 -0.6487793 14.40166016 -0.68115234 13.47363281 C-0.86297094 10.97692165 -0.86297094 10.97692165 -2.07666016 8.87402344 C-3 7 -3 7 -2.1875 3.8125 C-1 1 -1 1 0 0 Z " fill="#E5FAFD" transform="translate(520,531)"/>
<path d="M0 0 C0.98484375 0.00902344 1.9696875 0.01804687 2.984375 0.02734375 C4.10585938 0.04474609 4.10585938 0.04474609 5.25 0.0625 C5.25 0.3925 5.25 0.7225 5.25 1.0625 C4.44175781 1.22105469 3.63351562 1.37960937 2.80078125 1.54296875 C-3.60106008 2.94071698 -7.64828202 3.86699056 -11.75 9.0625 C-12.74 9.5575 -12.74 9.5575 -13.75 10.0625 C-14.41 8.7425 -15.07 7.4225 -15.75 6.0625 C-10.29146165 1.2242501 -7.40545236 -0.08816015 0 0 Z " fill="#1A3289" transform="translate(280.75,520.9375)"/>
<path d="M0 0 C0.5534764 2.07553648 1 3.84365964 1 6 C0.34 6 -0.32 6 -1 6 C-1 6.66 -1 7.32 -1 8 C-1.66 8 -2.32 8 -3 8 C-3 8.66 -3 9.32 -3 10 C-3.763125 10.5775 -4.52625 11.155 -5.3125 11.75 C-8.19545076 13.83730661 -8.19545076 13.83730661 -9.4375 17.125 C-11 20 -11 20 -14.1875 21.375 C-15.115625 21.58125 -16.04375 21.7875 -17 22 C-13.23355257 16.76406739 -9.21717906 11.90689733 -4.83203125 7.17578125 C-2.92293464 4.90847462 -1.45727888 2.57618031 0 0 Z " fill="#E9F0F1" transform="translate(503,426)"/>
<path d="M0 0 C0.33 0 0.66 0 1 0 C1.33 5.61 1.66 11.22 2 17 C3.32 16.67 4.64 16.34 6 16 C5.45276317 19.37462715 4.9451 21.08235 3 24 C2.34 24 1.68 24 1 24 C-0.94305123 18.41558177 -1.12697555 13.92055462 -0.625 8.0625 C-0.56828125 7.28326172 -0.5115625 6.50402344 -0.453125 5.70117188 C-0.31315654 3.79993361 -0.15813968 1.89981314 0 0 Z " fill="#253A86" transform="translate(345,536)"/>
<path d="M0 0 C1.98 0.495 1.98 0.495 4 1 C3.67 2.32 3.34 3.64 3 5 C3.66 5 4.32 5 5 5 C5 8.3 5 11.6 5 15 C4.34 15 3.68 15 3 15 C3 13.02 3 11.04 3 9 C1.68 8.67 0.36 8.34 -1 8 C-1.125 2.25 -1.125 2.25 0 0 Z " fill="#17409C" transform="translate(259,535)"/>
<path d="M0 0 C0.33 0 0.66 0 1 0 C1 5.61 1 11.22 1 17 C1.99 17 2.98 17 4 17 C4 17.66 4 18.32 4 19 C0.10281829 20.86665742 -2.54084185 21.13965761 -6.8125 20.625 C-8.27623047 20.45871094 -8.27623047 20.45871094 -9.76953125 20.2890625 C-10.50558594 20.19367187 -11.24164063 20.09828125 -12 20 C-12 19.67 -12 19.34 -12 19 C-11.37351562 18.93941406 -10.74703125 18.87882813 -10.1015625 18.81640625 C-8.87566406 18.69072266 -8.87566406 18.69072266 -7.625 18.5625 C-6.81289063 18.48128906 -6.00078125 18.40007813 -5.1640625 18.31640625 C-2.95727195 18.10909886 -2.95727195 18.10909886 -1 17 C-0.67 11.39 -0.34 5.78 0 0 Z " fill="#3957B6" transform="translate(292,547)"/>
<path d="M0 0 C0.66 0.33 1.32 0.66 2 1 C0.68 3.97 -0.64 6.94 -2 10 C-8.93 10 -15.86 10 -23 10 C-23 9.67 -23 9.34 -23 9 C-21.90300781 8.97421875 -20.80601562 8.9484375 -19.67578125 8.921875 C-18.22131552 8.8655731 -16.76688997 8.80822623 -15.3125 8.75 C-14.59126953 8.73582031 -13.87003906 8.72164062 -13.12695312 8.70703125 C-8.2142721 8.48270792 -5.58587337 7.64020478 -2 4 C-0.68834743 1.88339573 -0.68834743 1.88339573 0 0 Z " fill="#52A1CB" transform="translate(575,556)"/>
<path d="M0 0 C1.485 0.99 1.485 0.99 3 2 C3.22137393 4.62697064 3.28162025 7.00893964 3.1875 9.625 C3.16719727 10.68460938 3.16719727 10.68460938 3.14648438 11.765625 C3.1111104 13.51074128 3.05730221 15.25546608 3 17 C2.01 17 1.02 17 0 17 C0 11.39 0 5.78 0 0 Z " fill="#2244A0" transform="translate(294,547)"/>
<path d="M0 0 C0.99 0.33 1.98 0.66 3 1 C3.33 3.31 3.66 5.62 4 8 C3.34 8 2.68 8 2 8 C2 8.66 2 9.32 2 10 C1.01 10 0.02 10 -1 10 C-1.33 7.36 -1.66 4.72 -2 2 C-1.34 2 -0.68 2 0 2 C0 1.34 0 0.68 0 0 Z " fill="#359CD4" transform="translate(488,526)"/>
<path d="M0 0 C0.66 0 1.32 0 2 0 C2 0.66 2 1.32 2 2 C7.94 2 13.88 2 20 2 C20 2.66 20 3.32 20 4 C13.73 4 7.46 4 1 4 C0.67 2.68 0.34 1.36 0 0 Z " fill="#039EE8" transform="translate(436,548)"/>
<path d="M0 0 C0.89203125 0.11085938 1.7840625 0.22171875 2.703125 0.3359375 C3.37859375 0.43132813 4.0540625 0.52671875 4.75 0.625 C4.75 0.955 4.75 1.285 4.75 1.625 C4.14671875 1.65078125 3.5434375 1.6765625 2.921875 1.703125 C-2.41987156 2.08221669 -4.52286117 2.63163697 -8.25 6.625 C-11 6.375 -11 6.375 -13.25 5.625 C-8.99331796 1.06426924 -6.31683335 -0.83116228 0 0 Z " fill="#334993" transform="translate(227.25,521.375)"/>
<path d="M0 0 C6.63680043 -0.61200004 10.99107596 -0.07899547 16.6015625 3.61328125 C17.06304687 4.07089844 17.52453125 4.52851562 18 5 C18 5.99 18 6.98 18 8 C17.34 7.67 16.68 7.34 16 7 C16 6.34 16 5.68 16 5 C15.01 5.33 14.02 5.66 13 6 C11.27031735 5.02093435 9.54304269 4.03586677 7.8515625 2.9921875 C5.3120054 1.63132779 2.84434819 1.27749738 0 1 C0 0.67 0 0.34 0 0 Z " fill="#1D3687" transform="translate(327,521)"/>
<path d="M0 0 C0.33 0 0.66 0 1 0 C1.0825 1.11375 1.165 2.2275 1.25 3.375 C1.57873787 7.05753944 1.57873787 7.05753944 4.0625 8.4375 C4.701875 8.623125 5.34125 8.80875 6 9 C5.01 10.32 4.02 11.64 3 13 C0.5 10.75 0.5 10.75 -2 8 C-2 6.68 -2 5.36 -2 4 C-1.34 4 -0.68 4 0 4 C0 2.68 0 1.36 0 0 Z " fill="#1C3B9D" transform="translate(264,552)"/>
<path d="M0 0 C0.50789062 0.34933594 1.01578125 0.69867187 1.5390625 1.05859375 C5.69405656 3.80524712 8.90884805 5.6181636 14 6 C14 6.33 14 6.66 14 7 C6.48172337 7.69328371 1.97402239 6.67241975 -4 2 C-3.01 2 -2.02 2 -1 2 C-0.67 1.34 -0.34 0.68 0 0 Z " fill="#193294" transform="translate(218,561)"/>
<path d="M0 0 C0.66 0 1.32 0 2 0 C2.66 0.66 3.32 1.32 4 2 C5.31747324 2.69748583 6.64914193 3.36959957 8 4 C7.67 5.32 7.34 6.64 7 8 C5.68 8.33 4.36 8.66 3 9 C0 3.375 0 3.375 0 0 Z " fill="#254393" transform="translate(341,526)"/>
<path d="M0 0 C0.33 0 0.66 0 1 0 C1 7.92 1 15.84 1 24 C0.67 23.34 0.34 22.68 0 22 C-0.66 22 -1.32 22 -2 22 C-2 19.36 -2 16.72 -2 14 C-1.67 14 -1.34 14 -1 14 C-0.67 9.38 -0.34 4.76 0 0 Z " fill="#18316E" transform="translate(476,250)"/>
<path d="M0 0 C0.99 0.99 1.98 1.98 3 3 C2.67 3.33 2.34 3.66 2 4 C1.8415735 6.0708472 1.74875578 8.14678029 1.68359375 10.22265625 C1.64169922 11.48271484 1.59980469 12.74277344 1.55664062 14.04101562 C1.51682404 15.38150736 1.47711186 16.7220022 1.4375 18.0625 C1.39431958 19.40691523 1.35070544 20.7513166 1.30664062 22.09570312 C1.20014642 25.3970234 1.0981354 28.69842236 1 32 C0.67 32 0.34 32 0 32 C0 21.44 0 10.88 0 0 Z " fill="#EEECEB" transform="translate(384,532)"/>
<path d="M0 0 C0 0.99 0 1.98 0 3 C-5.51648654 6.62926746 -9.78630501 6.01924246 -16 5 C-16 4.67 -16 4.34 -16 4 C-15.31292969 3.87882813 -14.62585938 3.75765625 -13.91796875 3.6328125 C-12.56638672 3.38144531 -12.56638672 3.38144531 -11.1875 3.125 C-10.29417969 2.96257813 -9.40085938 2.80015625 -8.48046875 2.6328125 C-5.10344716 1.77127313 -3.59713763 0 0 0 Z " fill="#2A41AB" transform="translate(242,562)"/>
<path d="M0 0 C0.91007812 0.10183594 1.82015625 0.20367188 2.7578125 0.30859375 C3.45648438 0.39238281 4.15515625 0.47617187 4.875 0.5625 C4.875 0.8925 4.875 1.2225 4.875 1.5625 C4.28332031 1.58828125 3.69164062 1.6140625 3.08203125 1.640625 C-2.1970013 2.01954414 -5.23136661 2.66886661 -9.125 6.5625 C-9.785 5.9025 -10.445 5.2425 -11.125 4.5625 C-7.16153995 0.46692461 -5.69448613 -0.65705609 0 0 Z " fill="#364995" transform="translate(328.125,521.4375)"/>
<path d="M0 0 C0.66 0 1.32 0 2 0 C1.24150943 5.56226415 1.24150943 5.56226415 0 7.8125 C-1.29667944 10.64898628 -1.42260401 13.14659484 -1.625 16.25 C-1.69976562 17.32765625 -1.77453125 18.4053125 -1.8515625 19.515625 C-1.90054687 20.33546875 -1.94953125 21.1553125 -2 22 C-2.33 22 -2.66 22 -3 22 C-3.30372936 13.99054432 -3.50848663 7.30934715 0 0 Z " fill="#1B3481" transform="translate(298,287)"/>
<path d="M0 0 C6.27 0 12.54 0 19 0 C19 0.33 19 0.66 19 1 C13.06 1.33 7.12 1.66 1 2 C0.34 3.98 -0.32 5.96 -1 8 C-1.66 8 -2.32 8 -3 8 C-1.125 2.25 -1.125 2.25 0 0 Z " fill="#E8E6E7" transform="translate(437,552)"/>
<path d="M0 0 C10.09273402 -0.62644556 10.09273402 -0.62644556 13.625 1.8125 C15 4 15 4 16 7 C15.01 7.495 15.01 7.495 14 8 C13.360625 7.21625 12.72125 6.4325 12.0625 5.625 C8.67556897 2.16954724 4.63862668 1.67709801 0 1 C0 0.67 0 0.34 0 0 Z " fill="#1E3389" transform="translate(226,521)"/>
<path d="M0 0 C2.375 -0.4375 2.375 -0.4375 5 0 C8.07709473 2.22234619 8.89059651 3.52591821 9.75 7.25 C9.87375 8.61125 9.87375 8.61125 10 10 C9.34 10 8.68 10 8 10 C8 8.68 8 7.36 8 6 C7.34 6 6.68 6 6 6 C5.67 4.68 5.34 3.36 5 2 C2.69 2.33 0.38 2.66 -2 3 C-1.34 2.01 -0.68 1.02 0 0 Z " fill="#304A9A" transform="translate(467,240)"/>
<path d="M0 0 C0.66 0 1.32 0 2 0 C0.82080925 6.87861272 0.82080925 6.87861272 -1 10 C-4.125 10.8125 -4.125 10.8125 -7 11 C-5.76632058 7.29896173 -3.73190399 5.73190399 -1 3 C-0.67 2.01 -0.34 1.02 0 0 Z " fill="#42559F" transform="translate(201,555)"/>
<path d="M0 0 C0.33 0 0.66 0 1 0 C1.05398987 2.27057377 1.09278742 4.54151288 1.125 6.8125 C1.14820313 8.07707031 1.17140625 9.34164062 1.1953125 10.64453125 C1 14 1 14 -1 17 C-1.22354607 15.10590022 -1.42819951 13.2095652 -1.625 11.3125 C-1.74101562 10.25675781 -1.85703125 9.20101562 -1.9765625 8.11328125 C-2.0010326 4.86283654 -1.40852563 2.89769204 0 0 Z " fill="#2C44A8" transform="translate(511,226)"/>
<path d="M0 0 C0.33 0 0.66 0 1 0 C1.06058594 0.83144531 1.12117187 1.66289063 1.18359375 2.51953125 C1.26738281 3.60621094 1.35117188 4.69289063 1.4375 5.8125 C1.55931641 7.43091797 1.55931641 7.43091797 1.68359375 9.08203125 C1.90212461 12.05989905 1.90212461 12.05989905 3 15 C2.5625 17.1875 2.5625 17.1875 2 19 C1.34 19 0.68 19 0 19 C0 18.34 0 17.68 0 17 C-0.66 17 -1.32 17 -2 17 C-2 16.34 -2 15.68 -2 15 C-1.34 15 -0.68 15 0 15 C0 10.05 0 5.1 0 0 Z " fill="#2A49AB" transform="translate(212,537)"/>
<path d="M0 0 C0.66 0 1.32 0 2 0 C1.49202991 4.3177458 0.80317221 8.03302114 -1 12 C-1.33 11.34 -1.66 10.68 -2 10 C-2.66 9.67 -3.32 9.34 -4 9 C-2.68 6.03 -1.36 3.06 0 0 Z " fill="#39A2D1" transform="translate(440,538)"/>
<path d="M0 0 C2.97 0 5.94 0 9 0 C9 2.97 9 5.94 9 9 C8.34 8.01 7.68 7.02 7 6 C4.8757252 3.68260931 2.54334296 1.84173111 0 0 Z " fill="#2E95CF" transform="translate(564,522)"/>
<path d="M0 0 C2.31797853 3.70876564 2.95574738 7.68094384 3 12 C2.0625 14.5 2.0625 14.5 1 16 C-0.79074734 10.10106757 -1.08360869 6.06820868 0 0 Z " fill="#223999" transform="translate(200,294)"/>
<path d="M0 0 C2.46278801 2.46278801 2.99771255 4.70676982 4 8 C1.69 8.33 -0.62 8.66 -3 9 C-2.67 7.35 -2.34 5.7 -2 4 C-1.34 4 -0.68 4 0 4 C0 2.68 0 1.36 0 0 Z " fill="#40A0D1" transform="translate(498,544)"/>
<path d="M0 0 C2.8842454 0.34485543 3.8207818 0.78255407 5.703125 3.06640625 C6.21359375 3.89011719 6.7240625 4.71382812 7.25 5.5625 C7.77078125 6.38878906 8.2915625 7.21507812 8.828125 8.06640625 C9.21484375 8.70449219 9.6015625 9.34257812 10 10 C7.20891884 8.67855892 4.74213611 7.19617639 2.25 5.375 C1.32960938 4.70597656 1.32960938 4.70597656 0.390625 4.0234375 C-0.06828125 3.68570313 -0.5271875 3.34796875 -1 3 C-0.67 2.01 -0.34 1.02 0 0 Z " fill="#4EA6D7" transform="translate(426,222)"/>
<path d="M0 0 C0.33 1.32 0.66 2.64 1 4 C0.34 4 -0.32 4 -1 4 C-1 4.66 -1 5.32 -1 6 C-1.7425 6.2475 -2.485 6.495 -3.25 6.75 C-6.20124062 8.09147301 -7.84814974 9.60905526 -10 12 C-10 9 -10 9 -7.8125 6.73828125 C-6.884375 5.93777344 -5.95625 5.13726562 -5 4.3125 C-4.071875 3.50425781 -3.14375 2.69601562 -2.1875 1.86328125 C-1.1046875 0.94095703 -1.1046875 0.94095703 0 0 Z " fill="#E4F0F2" transform="translate(485,448)"/>
<path d="M0 0 C0.99 0.33 1.98 0.66 3 1 C3 2.32 3 3.64 3 5 C2.34 5 1.68 5 1 5 C1 5.66 1 6.32 1 7 C-0.65 7.33 -2.3 7.66 -4 8 C-2.87548273 5.0280615 -1.77706209 2.66559313 0 0 Z " fill="#EEF4F5" transform="translate(435,333)"/>
<path d="M0 0 C0.66 0.66 1.32 1.32 2 2 C1.6442194 5.37991574 0.64284201 8.04288438 -1 11 C-1.66 11 -2.32 11 -3 11 C-2.44894091 7.0507432 -1.61064629 3.65079826 0 0 Z " fill="#2F9FD6" transform="translate(435,549)"/>
<path d="M0 0 C0.33 0 0.66 0 1 0 C1 2.97 1 5.94 1 9 C1.66 9 2.32 9 3 9 C3 9.66 3 10.32 3 11 C2.01 11 1.02 11 0 11 C-1.77084117 8.29165469 -2.01052504 7.10735541 -1.6875 3.8125 C-1 1 -1 1 0 0 Z " fill="#2B429C" transform="translate(209,545)"/>
<path d="M0 0 C1.98 0 3.96 0 6 0 C5.01 2.31 4.02 4.62 3 7 C0 3.375 0 3.375 0 0 Z " fill="#ECF3F3" transform="translate(502,550)"/>
<path d="M0 0 C-0.99 1.485 -0.99 1.485 -2 3 C-2.66 2.690625 -3.32 2.38125 -4 2.0625 C-7.70476015 0.75039745 -11.09263991 0.39735865 -15 0 C-15 -0.33 -15 -0.66 -15 -1 C-9.53891111 -2.4002792 -5.30723432 -1.42705634 0 0 Z " fill="#425093" transform="translate(295,523)"/>
<path d="M0 0 C2.015625 1.703125 2.015625 1.703125 4 4 C4.171875 6.359375 4.171875 6.359375 3.75 8.75 C3.62109375 9.54921875 3.4921875 10.3484375 3.359375 11.171875 C3.24078125 11.77515625 3.1221875 12.3784375 3 13 C2.34 12.67 1.68 12.34 1 12 C0.5859375 9.27734375 0.5859375 9.27734375 0.375 5.9375 C0.30023438 4.83277344 0.22546875 3.72804688 0.1484375 2.58984375 C0.09945313 1.73519531 0.05046875 0.88054687 0 0 Z " fill="#2C459B" transform="translate(500,264)"/>
<path d="M0 0 C0.66 0.33 1.32 0.66 2 1 C2.33 1.99 2.66 2.98 3 4 C1.5625 6.1875 1.5625 6.1875 0 8 C0 6.68 0 5.36 0 4 C-1.98 4.99 -1.98 4.99 -4 6 C-2.84826645 3.53199953 -1.95216435 1.95216435 0 0 Z " fill="#213C8A" transform="translate(316,525)"/>
<path d="M0 0 C1.32 0 2.64 0 4 0 C4 1.32 4 2.64 4 4 C5.0551021 5.74668165 5.0551021 5.74668165 6.5 7.25 C7.325 8.1575 8.15 9.065 9 10 C5.17647894 8.4422692 2.70794407 6.08404742 0 3 C0 2.01 0 1.02 0 0 Z " fill="#364B8D" transform="translate(244,440)"/>
<path d="M0 0 C2 2 2 2 2.25 5.375 C2.01788888 8.74061121 1.57547812 10.16163863 0 13 C-0.19658808 11.58456585 -0.38187546 10.16755969 -0.5625 8.75 C-0.66691406 7.96109375 -0.77132813 7.1721875 -0.87890625 6.359375 C-1.00027349 3.99467126 -0.69633257 2.2488963 0 0 Z " fill="#314DA5" transform="translate(454,263)"/>
<path d="M0 0 C0.33 0.66 0.66 1.32 1 2 C1.66 2.33 2.32 2.66 3 3 C2.01 5.31 1.02 7.62 0 10 C-0.33 9.34 -0.66 8.68 -1 8 C-1.66 7.67 -2.32 7.34 -3 7 C-2.01 4.69 -1.02 2.38 0 0 Z " fill="#48A0D1" transform="translate(513,538)"/>
<path d="M0 0 C0.33 0 0.66 0 1 0 C1.33 3.3 1.66 6.6 2 10 C1.34 10 0.68 10 0 10 C-0.33 11.32 -0.66 12.64 -1 14 C-1.18451025 4.58997722 -1.18451025 4.58997722 0 0 Z " fill="#2949A1" transform="translate(543,299)"/>
<path d="M0 0 C1.04005702 3.38018531 1.08004482 6.4780279 1 10 C0.01 10.495 0.01 10.495 -1 11 C-1.66 11.99 -2.32 12.98 -3 14 C-2.40380045 9.13103697 -1.43023178 4.67209049 0 0 Z " fill="#CFE6EA" transform="translate(263,278)"/>
<path d="M0 0 C2.37948772 0.17625835 3.70225849 0.69719773 5.37890625 2.40234375 C6.62115486 3.90649092 7.81376056 5.45129851 9 7 C8.34 7.66 7.68 8.32 7 9 C6.01830524 7.87720538 5.03972702 6.75168527 4.0625 5.625 C3.51722656 4.99851563 2.97195313 4.37203125 2.41015625 3.7265625 C1 2 1 2 0 0 Z " fill="#34509B" transform="translate(500,169)"/>
<path d="M0 0 C2 2 2 2 2 5 C1.34 5 0.68 5 0 5 C0 5.66 0 6.32 0 7 C-0.66 7 -1.32 7 -2 7 C-2.33 7.66 -2.66 8.32 -3 9 C-3.33 7.68 -3.66 6.36 -4 5 C-3.34 5 -2.68 5 -2 5 C-2 4.34 -2 3.68 -2 3 C-1.34 3 -0.68 3 0 3 C0 2.01 0 1.02 0 0 Z " fill="#429FCC" transform="translate(492,531)"/>
<path d="M0 0 C0.66 0 1.32 0 2 0 C1.67 2.31 1.34 4.62 1 7 C0.01 7.33 -0.98 7.66 -2 8 C-1.125 1.125 -1.125 1.125 0 0 Z " fill="#30A2DB" transform="translate(516,532)"/>
<path d="M0 0 C1.60294922 0.04060547 1.60294922 0.04060547 3.23828125 0.08203125 C4.04652344 0.11683594 4.85476563 0.15164063 5.6875 0.1875 C5.6875 0.5175 5.6875 0.8475 5.6875 1.1875 C4.93984375 1.23648438 4.1921875 1.28546875 3.421875 1.3359375 C2.43703125 1.41070313 1.4521875 1.48546875 0.4375 1.5625 C-1.02429688 1.66691406 -1.02429688 1.66691406 -2.515625 1.7734375 C-5.22486314 2.17452583 -6.90836976 2.96415939 -9.3125 4.1875 C-9.9725 3.8575 -10.6325 3.5275 -11.3125 3.1875 C-7.38423635 0.41074962 -4.78125108 -0.15762366 0 0 Z " fill="#D2DDED" transform="translate(282.3125,522.8125)"/>
<path d="M0 0 C1.29608947 0.93137592 2.58671632 1.8703566 3.875 2.8125 C4.59429687 3.33457031 5.31359375 3.85664063 6.0546875 4.39453125 C8 6 8 6 10 9 C9.01 9 8.02 9 7 9 C6.34 8.01 5.68 7.02 5 6 C3.700625 5.2575 3.700625 5.2575 2.375 4.5 C1.59125 4.005 0.8075 3.51 0 3 C0 2.01 0 1.02 0 0 Z " fill="#1E398B" transform="translate(249,393)"/>
<path d="M0 0 C1.17571451 3.67410785 1.07366746 7.16929183 1 11 C0.01 11.495 0.01 11.495 -1 12 C-2.11658501 7.31034294 -1.80619523 4.46236469 0 0 Z " fill="#D9E2EC" transform="translate(535,357)"/>
<path d="M0 0 C0.33 0.66 0.66 1.32 1 2 C1.66 2 2.32 2 3 2 C3 1.34 3 0.68 3 0 C3.66 0 4.32 0 5 0 C4.34 2.31 3.68 4.62 3 7 C2.34 7 1.68 7 1 7 C1 5.68 1 4.36 1 3 C0.34 3 -0.32 3 -1 3 C-0.67 2.01 -0.34 1.02 0 0 Z " fill="#219BDA" transform="translate(447,528)"/>
<path d="M0 0 C0.99 0.33 1.98 0.66 3 1 C3 1.99 3 2.98 3 4 C0.69 4.66 -1.62 5.32 -4 6 C-4 5.01 -4 4.02 -4 3 C-2.1875 1.25 -2.1875 1.25 0 0 Z " fill="#2E4D9D" transform="translate(204,319)"/>
<path d="M0 0 C0 0.66 0 1.32 0 2 C-3.3 2 -6.6 2 -10 2 C-9.67 1.34 -9.34 0.68 -9 0 C-2.57142857 -1.28571429 -2.57142857 -1.28571429 0 0 Z " fill="#2F48A0" transform="translate(178,564)"/>
<path d="M0 0 C3.875 1.75 3.875 1.75 5 4 C3.35 4.33 1.7 4.66 0 5 C-0.5625 3.0625 -0.5625 3.0625 -1 1 C-0.67 0.67 -0.34 0.34 0 0 Z " fill="#1A3591" transform="translate(269,561)"/>
<path d="M0 0 C1.98 0 3.96 0 6 0 C6 0.66 6 1.32 6 2 C5.34 2 4.68 2 4 2 C3.67 2.99 3.34 3.98 3 5 C2.34 5 1.68 5 1 5 C0.67 3.35 0.34 1.7 0 0 Z " fill="#219BD5" transform="translate(458,556)"/>
<path d="M0 0 C2.31 0.33 4.62 0.66 7 1 C7 2.32 7 3.64 7 5 C6.34 5 5.68 5 5 5 C5 4.34 5 3.68 5 3 C4.34 3 3.68 3 3 3 C3 3.66 3 4.32 3 5 C2.34 5 1.68 5 1 5 C0.67 3.35 0.34 1.7 0 0 Z " fill="#269ED6" transform="translate(455,549)"/>
<path d="M0 0 C1.32 0 2.64 0 4 0 C4 1.32 4 2.64 4 4 C3.34 4 2.68 4 2 4 C2 4.66 2 5.32 2 6 C1.34 6 0.68 6 0 6 C0 4.02 0 2.04 0 0 Z " fill="#259ADB" transform="translate(488,530)"/>
<path d="M0 0 C1.67542976 0.28604898 3.34385343 0.61781233 5 1 C4.01 2.485 4.01 2.485 3 4 C2.01 3.67 1.02 3.34 0 3 C0 3.66 0 4.32 0 5 C-0.99 5.33 -1.98 5.66 -3 6 C-1.125 1.125 -1.125 1.125 0 0 Z " fill="#273C8D" transform="translate(213,527)"/>
<path d="M0 0 C2.64 1.32 5.28 2.64 8 4 C3.74938644 5.41687119 1.28148375 4.19320039 -3 3 C-2.01 2.67 -1.02 2.34 0 2 C0 1.34 0 0.68 0 0 Z " fill="#52A2CF" transform="translate(304,402)"/>
<path d="M0 0 C0.33 0 0.66 0 1 0 C2.32286246 4.96073422 2.08893197 9.91111512 2 15 C1.67 15 1.34 15 1 15 C1 12.69 1 10.38 1 8 C0.34 8 -0.32 8 -1 8 C-0.67 5.36 -0.34 2.72 0 0 Z " fill="#112C7D" transform="translate(543,253)"/>
<path d="M0 0 C0.33 1.32 0.66 2.64 1 4 C-0.65 5.32 -2.3 6.64 -4 8 C-4.66 7.67 -5.32 7.34 -6 7 C-4.02 4.69 -2.04 2.38 0 0 Z " fill="#42A0D4" transform="translate(259,211)"/>
<path d="M0 0 C2.625 0.1875 2.625 0.1875 5 1 C5.33 1.66 5.66 2.32 6 3 C3.03 3 0.06 3 -3 3 C-2.01 2.01 -1.02 1.02 0 0 Z " fill="#3996D2" transform="translate(481,564)"/>
<path d="M0 0 C0.763125 0.20625 1.52625 0.4125 2.3125 0.625 C-0.30948774 2.77877564 -2.33154172 4.02572174 -5.6875 4.625 C-5.6875 3.635 -5.6875 2.645 -5.6875 1.625 C-2.6875 -0.375 -2.6875 -0.375 0 0 Z " fill="#2E4397" transform="translate(340.6875,563.375)"/>
<path d="M0 0 C0.66 0 1.32 0 2 0 C1.67 4.62 1.34 9.24 1 14 C0.67 14 0.34 14 0 14 C-0.19456705 12.04235617 -0.38044247 10.08384679 -0.5625 8.125 C-0.66691406 7.03445313 -0.77132812 5.94390625 -0.87890625 4.8203125 C-1 2 -1 2 0 0 Z " fill="#304A9A" transform="translate(249,535)"/>
<path d="M0 0 C0.66 0 1.32 0 2 0 C2 1.32 2 2.64 2 4 C2.66 4 3.32 4 4 4 C3.67 5.65 3.34 7.3 3 9 C0.87491756 5.81237635 0.4979837 3.73487777 0 0 Z " fill="#269CDD" transform="translate(450,536)"/>
<path d="M0 0 C2 2 2 2 2.1953125 4.3828125 C2.17210937 5.28773438 2.14890625 6.19265625 2.125 7.125 C2.10695313 8.03507813 2.08890625 8.94515625 2.0703125 9.8828125 C2.03550781 10.93082031 2.03550781 10.93082031 2 12 C1.67 12 1.34 12 1 12 C1 10.02 1 8.04 1 6 C0.34 6 -0.32 6 -1 6 C-1.042721 4.33388095 -1.04063832 2.66617115 -1 1 C-0.67 0.67 -0.34 0.34 0 0 Z " fill="#2E498E" transform="translate(263,534)"/>
<path d="M0 0 C0.66 0 1.32 0 2 0 C1.8125 1.8125 1.8125 1.8125 1 4 C-1.5625 5.75 -1.5625 5.75 -4 7 C-4 6.01 -4 5.02 -4 4 C-3.34 4 -2.68 4 -2 4 C-2 3.34 -2 2.68 -2 2 C-1.34 2 -0.68 2 0 2 C0 1.34 0 0.68 0 0 Z " fill="#567EC2" transform="translate(406,364)"/>
<path d="M0 0 C0.66 0 1.32 0 2 0 C1.67 2.31 1.34 4.62 1 7 C0.34 7 -0.32 7 -1 7 C-1.33 5.35 -1.66 3.7 -2 2 C-1.34 2 -0.68 2 0 2 C0 1.34 0 0.68 0 0 Z " fill="#E7EDF0" transform="translate(370,282)"/>
<path d="M0 0 C2.97 0.99 5.94 1.98 9 3 C9 3.33 9 3.66 9 4 C6.03 4 3.06 4 0 4 C0 2.68 0 1.36 0 0 Z " fill="#DFE8EF" transform="translate(266,564)"/>
<path d="M0 0 C1.32 0 2.64 0 4 0 C4 1.65 4 3.3 4 5 C3.01 5.495 3.01 5.495 2 6 C0 3 0 3 0 0 Z " fill="#299CDD" transform="translate(410,560)"/>
<path d="M0 0 C3.3 0 6.6 0 10 0 C10.33 0.99 10.66 1.98 11 3 C7.37 2.34 3.74 1.68 0 1 C0 0.67 0 0.34 0 0 Z " fill="#16297C" transform="translate(327,521)"/>
<path d="M0 0 C0.33 0.99 0.66 1.98 1 3 C1.66 3 2.32 3 3 3 C3.625 4.8125 3.625 4.8125 4 7 C3.01 8.485 3.01 8.485 2 10 C0.68373308 6.38026598 0 3.90432869 0 0 Z " fill="#19378C" transform="translate(204,369)"/>
<path d="M0 0 C2 3 2 3 2 6 C1.01 6 0.02 6 -1 6 C-1.66 4.68 -2.32 3.36 -3 2 C-2.01 1.34 -1.02 0.68 0 0 Z " fill="#314B9F" transform="translate(499,217)"/>
<path d="M0 0 C1.32 0 2.64 0 4 0 C4 1.32 4 2.64 4 4 C4.66 4 5.32 4 6 4 C5.34 5.32 4.68 6.64 4 8 C2.66666667 5.33333333 1.33333333 2.66666667 0 0 Z " fill="#E2ECE3" transform="translate(490,196)"/>
<path d="M0 0 C1.32 0 2.64 0 4 0 C6.17457267 2.87354245 7 4.36436591 7 8 C5.83035398 6.8572081 4.66435444 5.71068285 3.5 4.5625 C2.8503125 3.92441406 2.200625 3.28632813 1.53125 2.62890625 C0 1 0 1 0 0 Z " fill="#294697" transform="translate(478,170)"/>
<path d="M0 0 C2.375 -0.1875 2.375 -0.1875 5 0 C5.66 0.99 6.32 1.98 7 3 C4.03 3 1.06 3 -2 3 C-1.34 2.67 -0.68 2.34 0 2 C0 1.34 0 0.68 0 0 Z " fill="#419AD2" transform="translate(380,564)"/>
<path d="M0 0 C1.32 0 2.64 0 4 0 C3.67 1.65 3.34 3.3 3 5 C2.01 4.67 1.02 4.34 0 4 C0 2.68 0 1.36 0 0 Z " fill="#3598CD" transform="translate(501,562)"/>
<path d="M0 0 C3.71599191 -0.20086443 4.77208445 -0.1519437 8 2 C8 2.66 8 3.32 8 4 C4.31245243 3.50168276 2.39509338 2.89932357 0 0 Z " fill="#DAE0E5" transform="translate(272,562)"/>
<path d="M0 0 C0.66 0 1.32 0 2 0 C2 2.31 2 4.62 2 7 C1.01 7.495 1.01 7.495 0 8 C-1.125 2.25 -1.125 2.25 0 0 Z " fill="#EDF1F1" transform="translate(518,534)"/>
<path d="M0 0 C0.99 0.33 1.98 0.66 3 1 C3 2.65 3 4.3 3 6 C2.01 5.34 1.02 4.68 0 4 C-0.99 4.495 -0.99 4.495 -2 5 C-1.34 3.35 -0.68 1.7 0 0 Z " fill="#2644A6" transform="translate(263,531)"/>
<path d="M0 0 C2.625 0.9375 2.625 0.9375 5 2 C5 2.99 5 3.98 5 5 C2.08482708 3.92598892 0.22189824 3.22189824 -2 1 C-1.34 0.67 -0.68 0.34 0 0 Z " fill="#3EA0D8" transform="translate(282,393)"/>
</svg>
